<svg width="145" height="145" viewBox="0 0 145 145" fill="none" xmlns="http://www.w3.org/2000/svg">
<g clip-path="url(#clip0_3292_8603)">
<path d="M144.354 72.1771C144.354 32.3148 112.039 0 72.1771 0C32.3148 0 0 32.3148 0 72.1771C0 112.039 32.3148 144.354 72.1771 144.354C112.039 144.354 144.354 112.039 144.354 72.1771Z" fill="#5CC2C3"/>
<path d="M72.177 29.1104C48.4307 29.1104 29.1104 48.4307 29.1104 72.177C29.1104 95.9232 48.4307 115.244 72.177 115.244C95.9232 115.244 115.244 95.9232 115.244 72.177C115.244 48.4307 95.9232 29.1104 72.177 29.1104ZM46.8024 41.0484H60.695C61.974 41.0484 63.0162 42.0907 63.0162 43.3697V44.0452C63.0162 45.3242 61.974 46.3664 60.695 46.3664H60.3572C57.4846 46.3664 55.1489 48.7021 55.1489 51.5747C55.1489 54.4474 57.4846 56.783 60.3572 56.783H68.5652C69.8442 56.783 70.8864 57.8253 70.8864 59.1042V59.442C70.8864 60.721 69.8442 61.7633 68.5652 61.7633H50.5354C50.4603 61.7633 50.391 61.7719 50.3189 61.7806C48.9302 60.1927 46.9583 59.2226 44.8219 59.1273C44.5649 59.1158 44.3022 59.1158 44.051 59.1273C41.9203 59.2226 39.96 60.184 38.5713 61.7633H33.3659C35.5803 53.512 40.3642 46.3 46.8024 41.0427V41.0484ZM44.4494 78.2716L39.9975 69.3909C39.2123 67.8261 39.2758 65.9842 40.1679 64.4627C40.1939 64.4165 40.2227 64.3732 40.2516 64.3299C40.4421 64.174 40.5894 63.9719 40.6818 63.738C41.5595 62.6958 42.7951 62.0808 44.1838 62.0173C44.2675 62.0144 44.3513 62.0115 44.435 62.0115C44.5187 62.0115 44.6024 62.0115 44.689 62.0173C46.3722 62.0924 47.8331 62.9845 48.7021 64.4598C49.5942 65.9784 49.6606 67.8204 48.8782 69.3852L44.4465 78.2687L44.4494 78.2716ZM31.9974 72.177C31.9974 69.6046 32.2428 67.0899 32.7077 64.6532C32.725 64.6532 32.7394 64.6532 32.7567 64.6532H36.9459C36.3165 66.6309 36.4666 68.7846 37.4165 70.6815L43.0867 81.9959C43.1647 82.2153 43.2975 82.4174 43.4822 82.582C43.7565 82.8274 44.103 82.9487 44.4436 82.9487C44.8392 82.9487 45.2347 82.787 45.5205 82.4665C45.5263 82.4608 45.5292 82.455 45.5321 82.4492C45.5869 82.3886 45.6331 82.3193 45.6793 82.25C45.688 82.2384 45.6938 82.224 45.7024 82.2125C45.7169 82.1894 45.7313 82.1663 45.7428 82.1432L51.465 70.6757C52.412 68.7789 52.5592 66.628 51.9298 64.6561H68.5652C71.4379 64.6561 73.7735 62.3205 73.7735 59.4478V59.11C73.7735 56.2374 71.4379 53.9017 68.5652 53.9017H60.3572C59.0783 53.9017 58.036 52.8595 58.036 51.5805C58.036 50.3015 59.0783 49.2593 60.3572 49.2593H60.695C63.5677 49.2593 65.9033 46.9237 65.9033 44.051V43.3754C65.9033 40.5028 63.5677 38.1671 60.695 38.1671H50.8154C57.0082 34.2667 64.3299 32.0032 72.1741 32.0032C94.3295 32.0032 112.354 50.0273 112.354 72.1827C112.354 73.1499 112.316 74.1084 112.25 75.0612H98.6313C95.7587 75.0612 93.423 77.3968 93.423 80.2695V80.945C93.423 83.8177 95.7587 86.1533 98.6313 86.1533H98.9691C100.248 86.1533 101.29 87.1956 101.29 88.4745C101.29 89.7535 100.248 90.7957 98.9691 90.7957H90.7611C87.8885 90.7957 85.5528 93.1314 85.5528 96.0041V96.3418C85.5528 99.2145 87.8885 101.55 90.7611 101.55H99.558C92.3779 108.251 82.7466 112.356 72.1741 112.356C50.0186 112.356 31.9945 94.3324 31.9945 72.177H31.9974ZM102.338 98.689C102.246 98.6717 102.151 98.6602 102.052 98.6602H90.7611C89.4821 98.6602 88.4399 97.6179 88.4399 96.339V96.0012C88.4399 94.7222 89.4821 93.68 90.7611 93.68H98.9691C101.842 93.68 104.177 91.3443 104.177 88.4717C104.177 85.599 101.842 83.2634 98.9691 83.2634H98.6313C97.3523 83.2634 96.3101 82.2211 96.3101 80.9421V80.2666C96.3101 78.9876 97.3523 77.9454 98.6313 77.9454H111.938C110.8 85.83 107.365 92.9784 102.335 98.6948L102.338 98.689Z" fill="white"/>
<path d="M89.2455 67.9702C89.2686 68.0424 89.2975 68.1117 89.3293 68.181C89.3293 68.1868 89.335 68.1925 89.3379 68.1983C89.3726 68.2647 89.4101 68.3282 89.4534 68.3889C89.4534 68.3889 89.4563 68.3917 89.4592 68.3946C89.5833 68.5679 89.7479 68.718 89.95 68.8248C90.1636 68.9403 90.3975 68.9951 90.6256 68.9951C90.7006 68.9951 90.7728 68.9894 90.845 68.9778C90.8796 68.972 90.9114 68.9634 90.946 68.9576C90.9691 68.9518 90.9893 68.949 91.0124 68.9432C91.4108 68.8392 91.7515 68.5707 91.9392 68.1925L97.6614 56.725C98.8797 54.2797 98.7787 51.4099 97.39 49.0483C96.0359 46.7473 93.6541 45.3037 91.0153 45.1825C90.7613 45.1709 90.5043 45.1709 90.2473 45.1825C87.6086 45.3009 85.2267 46.7473 83.8727 49.0512C82.484 51.4186 82.3858 54.2883 83.6099 56.7337L89.2426 67.976L89.2455 67.9702ZM86.3642 50.5092C87.2304 49.031 88.6941 48.1389 90.3773 48.0638C90.461 48.0609 90.5476 48.058 90.6313 48.058C90.7151 48.058 90.8017 48.058 90.8854 48.0638C92.5686 48.1389 94.0323 49.031 94.8984 50.5063C95.7906 52.0249 95.857 53.8668 95.0746 55.4316L90.6429 64.3152L86.191 55.4345C85.4057 53.8697 85.4692 52.0278 86.3613 50.5092H86.3642Z" fill="white"/>
<path d="M72.734 82.2299C72.4771 82.2183 72.2143 82.2183 71.9632 82.2299C69.3244 82.3482 66.9425 83.7946 65.5885 86.0985C64.1998 88.4659 64.1016 91.3357 65.3258 93.7811L71.0711 105.243C71.3165 105.731 71.8159 106.04 72.3616 106.04C72.9072 106.04 73.4067 105.731 73.6521 105.24L79.3743 93.7724C80.5927 91.327 80.4916 88.4573 79.1029 86.0957C77.7489 83.7946 75.367 82.3511 72.7311 82.2327L72.734 82.2299ZM76.7933 92.4819L72.3616 101.365L67.9097 92.4848C67.1244 90.92 67.1879 89.078 68.08 87.5565C68.9462 86.0783 70.4099 85.1862 72.096 85.1112C72.1797 85.1083 72.2634 85.1054 72.3472 85.1054C72.4309 85.1054 72.5146 85.1054 72.6012 85.1112C74.2844 85.1862 75.7452 86.0783 76.6143 87.5536C77.5064 89.0722 77.5728 90.9142 76.7904 92.479L76.7933 92.4819Z" fill="white"/>
<path d="M44.4379 69.5902C45.7008 69.5902 46.7245 68.5665 46.7245 67.3037C46.7245 66.0408 45.7008 65.0171 44.4379 65.0171C43.1751 65.0171 42.1514 66.0408 42.1514 67.3037C42.1514 68.5665 43.1751 69.5902 44.4379 69.5902Z" fill="white"/>
<path d="M67.523 75.9708C67.6616 75.9708 67.803 75.9505 67.9445 75.9072L67.9676 75.8986C68.7298 75.6676 69.16 74.8592 68.929 74.097C68.698 73.3348 67.8925 72.9047 67.1275 73.1356L67.1044 73.1443C66.3422 73.3753 65.912 74.1836 66.143 74.9458C66.3335 75.5694 66.9052 75.9708 67.523 75.9708Z" fill="white"/>
<path d="M63.1546 75.8436C62.9236 75.0814 62.1181 74.6513 61.353 74.8822L61.3299 74.8909C60.5678 75.1218 60.1376 75.9302 60.3685 76.6924C60.5591 77.316 61.1307 77.7173 61.7486 77.7173C61.8872 77.7173 62.0286 77.6971 62.1701 77.6538L62.1932 77.6452C62.9554 77.4142 63.3855 76.6058 63.1546 75.8436Z" fill="white"/>
<path d="M73.2969 74.2266C73.4355 74.2266 73.577 74.2064 73.7184 74.1631L73.7415 74.1544C74.5037 73.9235 74.9339 73.1151 74.7029 72.3529C74.472 71.5907 73.6665 71.1605 72.9014 71.3915L72.8783 71.4002C72.1161 71.6311 71.6859 72.4395 71.9169 73.2017C72.1074 73.8253 72.6791 74.2266 73.2969 74.2266Z" fill="white"/>
<path d="M86.2541 68.88C86.0289 68.115 85.2263 67.6761 84.4612 67.9013L84.4382 67.9071C83.6731 68.1323 83.2342 68.9349 83.4594 69.7C83.6442 70.3294 84.2187 70.7364 84.8423 70.7364C84.978 70.7364 85.1137 70.7162 85.2494 70.6758L85.2725 70.67C86.0376 70.4448 86.4764 69.6422 86.2512 68.8772L86.2541 68.88Z" fill="white"/>
<path d="M51.6033 79.3309C51.3723 78.5687 50.5669 78.1386 49.8018 78.3695L49.7787 78.3782C49.0165 78.6092 48.5863 79.4175 48.8173 80.1797C49.0078 80.8033 49.5795 81.2046 50.1973 81.2046C50.3359 81.2046 50.4774 81.1844 50.6188 81.1411L50.6419 81.1325C51.4041 80.9015 51.8343 80.0931 51.6033 79.3309Z" fill="white"/>
<path d="M56.3992 79.3947L56.4223 79.386C57.1844 79.1522 57.6117 78.3438 57.3779 77.5816C57.144 76.8194 56.3385 76.3921 55.5735 76.626L55.5504 76.6346C54.7882 76.8685 54.3609 77.6769 54.5947 78.4391C54.7853 79.0598 55.3569 79.4582 55.9748 79.4582C56.1162 79.4582 56.2577 79.438 56.3992 79.3947Z" fill="white"/>
<path d="M79.0713 72.483C79.207 72.483 79.3427 72.4628 79.4784 72.4224L79.5015 72.4166C80.2666 72.1914 80.7054 71.3888 80.4802 70.6237C80.255 69.8586 79.4524 69.4198 78.6873 69.645L78.6642 69.6508C77.8992 69.8759 77.4603 70.6786 77.6855 71.4436C77.8703 72.073 78.4448 72.4801 79.0684 72.4801L79.0713 72.483Z" fill="white"/>
<path d="M57.5219 91.3902C56.9301 90.8561 56.0264 90.911 55.4923 91.5028C54.9582 92.0947 55.013 93.0157 55.6049 93.5498C55.882 93.7981 56.2256 93.9222 56.5721 93.9222C56.9676 93.9222 57.3602 93.7605 57.6432 93.4459C58.1773 92.854 58.1311 91.9417 57.5392 91.4076L57.5219 91.3931V91.3902Z" fill="white"/>
<path d="M61.5726 95.0541C60.9836 94.5171 60.08 94.5633 59.5401 95.1522C59.0002 95.7412 59.0493 96.6622 59.6383 97.1992C59.9154 97.4533 60.2648 97.5774 60.6112 97.5774C61.001 97.5774 61.3907 97.4186 61.6765 97.1097C62.2135 96.5207 62.176 95.6084 61.587 95.0714L61.5697 95.057L61.5726 95.0541Z" fill="white"/>
<path d="M53.4804 87.7355C52.8886 87.2013 51.9849 87.2562 51.4508 87.8481C50.9167 88.4399 50.9715 89.3609 51.5634 89.895C51.8405 90.1433 52.1841 90.2674 52.5306 90.2674C52.9261 90.2674 53.3187 90.1058 53.6017 89.7911C54.1358 89.1992 54.0896 88.2869 53.4977 87.7528L53.4804 87.7383V87.7355Z" fill="white"/>
<path d="M49.4471 84.086C48.8582 83.5461 47.9545 83.5952 47.4146 84.1842C46.8747 84.7731 46.9238 85.6941 47.5128 86.2311C47.7899 86.4852 48.1393 86.6093 48.4857 86.6093C48.8755 86.6093 49.2652 86.4505 49.5511 86.1416C50.0881 85.5526 50.0505 84.6403 49.4616 84.1033L49.4442 84.0889L49.4471 84.086Z" fill="white"/>
<path d="M65.6002 98.7005C65.0054 98.1693 64.0989 98.2241 63.5648 98.8189C63.0335 99.4136 63.0884 100.329 63.6831 100.86C63.9574 101.105 64.3039 101.227 64.6445 101.227C65.0401 101.227 65.4356 101.065 65.7214 100.745C66.2526 100.15 66.2036 99.2375 65.6088 98.7063L65.6002 98.6976V98.7005Z" fill="white"/>
<path d="M82.1749 83.3441C81.4705 82.9688 80.5986 83.2344 80.2233 83.9389L80.2175 83.9504C79.8422 84.6549 80.1107 85.5239 80.8151 85.8992C81.0288 86.0147 81.2626 86.0695 81.4907 86.0695C82.0104 86.0695 82.5127 85.7895 82.7726 85.3016C83.1479 84.5971 82.8823 83.7252 82.1778 83.3499L82.1749 83.3441Z" fill="white"/>
<path d="M88.2722 71.9546C87.5707 71.5792 86.6959 71.8449 86.3177 72.5464L86.3061 72.5695C85.9308 73.274 86.1964 74.1459 86.898 74.5241C87.1145 74.6396 87.3484 74.6944 87.5764 74.6944C88.0932 74.6944 88.5898 74.4172 88.8496 73.9322L88.8612 73.9091C89.2365 73.2047 88.9709 72.3328 88.2693 71.9546H88.2722Z" fill="white"/>
<path d="M85.8042 79.6256L85.8157 79.6025C86.1911 78.898 85.9254 78.0261 85.2239 77.6479C84.5223 77.2726 83.6475 77.5382 83.2693 78.2398L83.2578 78.2629C82.8825 78.9673 83.1481 79.8392 83.8496 80.2174C84.0662 80.3329 84.3 80.3878 84.5281 80.3878C85.0449 80.3878 85.5415 80.1106 85.8013 79.6256H85.8042Z" fill="white"/>
</g>
<defs>
<clipPath id="clip0_3292_8603">
<rect width="144.354" height="144.354" fill="white"/>
</clipPath>
</defs>
</svg>
