<?xml version="1.0" ?>
<!-- Uploaded to: SVG Repo, www.svgrepo.com, Generator: SVG Repo Mixer Tools -->
<svg width="800px" height="800px" viewBox="0 0 512 512" baseProfile="tiny" overflow="visible" version="1.1" xml:space="preserve" xmlns="http://www.w3.org/2000/svg" xmlns:xlink="http://www.w3.org/1999/xlink">
<g id="Layer_1"/>
<g id="Layer_2"/>
<g id="Layer_3"/>
<g id="Layer_4"/>
<g id="Layer_5"/>
<g id="Layer_6"/>
<g id="Layer_7"/>
<g id="Layer_8"/>
<g id="Layer_9"/>
<g id="Layer_10"/>
<g id="Layer_11"/>
<g id="Layer_12"/>
<g id="Layer_13"/>
<g id="Layer_14"/>
<g id="Layer_15"/>
<g id="Layer_16"/>
<g id="Layer_17"/>
<g id="Layer_18"/>
<g id="Layer_19"/>
<g id="Layer_20"/>
<g id="Layer_21"/>
<g id="Layer_22"/>
<g id="Layer_23"/>
<g id="Layer_24"/>
<g id="Layer_25"/>
<g id="Layer_26"/>
<g id="Layer_27"/>
<g id="Layer_28"/>
<g id="Layer_29"/>
<g id="Layer_30"/>
<g id="Layer_31"/>
<g id="Layer_32"/>
<g id="Layer_33"/>
<g id="Layer_34"/>
<g id="Layer_35"/>
<g id="Layer_36"/>
<g id="Layer_37"/>
<g id="Layer_38"/>
<g id="Layer_39"/>
<g id="Layer_40"/>
<g id="Layer_41"/>
<g id="Layer_42"/>
<g id="Layer_43"/>
<g id="Layer_44"/>
<g id="Layer_45"/>
<g id="Layer_46"/>
<g id="Layer_47"/>
<g id="Layer_48"/>
<g id="Layer_49"/>
<g id="Layer_50">
<g>
<path d="M419.192,155.763l37.863-4.668c4.184-0.516,5.871-5.673,2.8-8.56l-27.717-26.055    c-1.768-1.662-2.079-4.355-0.736-6.376l8.229-12.385c2.337-3.517-0.497-8.162-4.695-7.696l-26.103,2.902    c-5.228,0.581-7.665-6.288-3.239-9.129l22.159-14.225c3.557-2.284,2.825-7.681-1.211-8.935l-14.256-4.431    c-2.313-0.719-3.772-2.999-3.456-5.4l4.966-37.664c0.55-4.17-4.004-7.097-7.572-4.867l-32.355,20.228    c-2.046,1.279-4.715,0.906-6.332-0.884l-10.031-11.108c-2.825-3.128-8.017-1.547-8.619,2.624l-4.069,28.23    c-0.749,5.197-7.997,5.839-9.648,0.855l-9.231-27.853c-1.325-3.999-6.714-4.643-8.945-1.069l-7.917,12.682    c-1.278,2.047-3.842,2.882-6.081,1.98l-35.408-14.261c-3.905-1.573-7.877,2.111-6.601,6.121l11.516,36.2    c0.735,2.31-0.303,4.813-2.456,5.926l-13.244,6.846c-3.755,1.941-3.531,7.383,0.371,9.01l35.683,14.871    c3.839,1.6,4.137,6.922,0.5,8.94l-13.644,7.571c-3.853,2.138-3.229,7.859,0.995,9.116l44.971,13.387    c0.895,0.266,1.696,0.779,2.313,1.479l31,35.172c2.906,3.297,8.349,1.483,8.694-2.898l1.229-15.589    c0.326-4.133,5.27-6.077,8.325-3.274l28.527,26.178c3.106,2.85,8.129,0.789,8.335-3.421l0.729-14.877    C414.949,158.04,416.79,156.059,419.192,155.763z" fill="#FFAAA1"/>
<path d="M419.192,456.421l37.863-4.668c4.184-0.516,5.871-5.673,2.8-8.56l-27.717-26.055    c-1.768-1.662-2.079-4.355-0.736-6.376l8.229-12.385c2.337-3.517-0.497-8.162-4.695-7.696l-26.103,2.902    c-5.228,0.581-7.665-6.288-3.239-9.129l22.159-14.225c3.557-2.284,2.825-7.681-1.211-8.935l-14.256-4.431    c-2.313-0.719-3.772-2.999-3.456-5.4l4.966-37.664c0.55-4.17-4.004-7.098-7.572-4.867l-32.355,20.228    c-2.046,1.279-4.715,0.906-6.332-0.884l-10.031-11.108c-2.825-3.128-8.017-1.547-8.619,2.624l-4.069,28.23    c-0.749,5.197-7.997,5.839-9.648,0.855l-9.231-27.853c-1.325-3.999-6.714-4.643-8.945-1.069l-7.917,12.682    c-1.278,2.047-3.842,2.882-6.081,1.98l-35.408-14.261c-3.905-1.573-7.877,2.111-6.601,6.121l11.516,36.2    c0.735,2.31-0.303,4.813-2.456,5.926l-13.244,6.846c-3.755,1.941-3.531,7.383,0.371,9.009l35.683,14.871    c3.839,1.6,4.137,6.922,0.5,8.94l-13.644,7.571c-3.853,2.138-3.229,7.859,0.995,9.116l44.971,13.387    c0.895,0.266,1.696,0.779,2.313,1.479l31,35.172c2.906,3.297,8.349,1.483,8.694-2.898l1.229-15.589    c0.326-4.133,5.27-6.077,8.325-3.274l28.527,26.178c3.106,2.85,8.129,0.789,8.335-3.421l0.729-14.877    C414.949,458.698,416.79,456.717,419.192,456.421z" fill="#FFAAA1"/>
<path d="M92.808,306.889l-37.863-4.668c-4.184-0.516-5.871-5.673-2.8-8.56l27.717-26.055    c1.768-1.662,2.079-4.355,0.736-6.376l-8.229-12.385c-2.337-3.517,0.497-8.162,4.695-7.696l26.103,2.902    c5.228,0.581,7.665-6.288,3.239-9.129l-22.159-14.225c-3.557-2.284-2.825-7.681,1.211-8.935l14.256-4.431    c2.313-0.719,3.772-2.999,3.456-5.4l-4.966-37.664c-0.55-4.17,4.004-7.097,7.572-4.867l32.355,20.228    c2.046,1.279,4.715,0.906,6.332-0.884l10.031-11.108c2.825-3.128,8.017-1.547,8.619,2.624l4.069,28.23    c0.749,5.197,7.997,5.839,9.648,0.855l9.231-27.853c1.325-3.999,6.714-4.643,8.945-1.069l7.917,12.682    c1.278,2.047,3.842,2.882,6.081,1.98l35.408-14.261c3.905-1.573,7.877,2.111,6.601,6.121l-11.516,36.2    c-0.735,2.31,0.303,4.813,2.456,5.926l13.244,6.846c3.755,1.941,3.531,7.383-0.371,9.01l-35.683,14.871    c-3.839,1.6-4.137,6.922-0.5,8.94l13.644,7.571c3.853,2.138,3.229,7.859-0.995,9.116l-44.971,13.387    c-0.895,0.266-1.696,0.779-2.313,1.479l-31,35.172c-2.906,3.297-8.349,1.483-8.694-2.898l-1.229-15.589    c-0.326-4.133-5.27-6.077-8.325-3.274l-28.527,26.178c-3.106,2.85-8.129,0.789-8.335-3.421l-0.729-14.877    C97.051,309.165,95.21,307.185,92.808,306.889z" fill="#FFAAA1"/>
<g>
<path d="M357.686,27.616c1.617,1.791,4.286,2.163,6.332,0.884l2.76-1.725l-9.272-10.267     c-2.59-2.867-7.159-1.771-8.367,1.644L357.686,27.616z" fill="#FF938A"/>
<path d="M325.319,48.217c1.636,4.936,8.749,4.347,9.615-0.712l-8.995-27.141     c-1.326-3.999-6.714-4.643-8.945-1.069l-0.824,1.319L325.319,48.217z" fill="#FF938A"/>
<path d="M403.945,13.14l-4.966,37.664c-0.316,2.401,1.142,4.681,3.456,5.4l14.256,4.431     c4.037,1.255,4.769,6.652,1.212,8.935l-22.159,14.225c-4.426,2.841-1.989,9.71,3.239,9.129l6.603-0.734     c-2.753-1.786-3.343-6.243,0.01-8.395l22.159-14.225c3.557-2.284,2.825-7.681-1.212-8.935l-14.256-4.431     c-2.313-0.719-3.772-2.999-3.456-5.4l4.966-37.664c0.55-4.17-4.004-7.097-7.572-4.867l-2.869,1.793     C403.851,10.945,404.097,11.992,403.945,13.14z" fill="#FF938A"/>
<path d="M459.855,142.535l-27.717-26.055c-1.767-1.662-2.079-4.355-0.736-6.376l8.229-12.385     c2.337-3.517-0.496-8.162-4.695-7.696l-6.645,0.739c2.194,1.4,3.149,4.459,1.489,6.957l-8.229,12.385     c-1.342,2.02-1.031,4.714,0.736,6.376l27.717,26.055c3.071,2.887,1.384,8.045-2.8,8.56l-37.863,4.668     c-2.402,0.296-4.243,2.277-4.361,4.693l-0.729,14.877c-0.03,0.61-0.17,1.168-0.382,1.679l1.898,1.742     c3.106,2.85,8.129,0.789,8.335-3.421l0.729-14.877c0.118-2.416,1.959-4.397,4.361-4.693l37.863-4.668     C461.239,150.579,462.926,145.422,459.855,142.535z" fill="#FF938A"/>
<path d="M293.145,33.958c2.1,0.846,4.471,0.15,5.814-1.626l-31.371-12.635c-2.269-0.914-4.553-0.047-5.825,1.621     L293.145,33.958z" fill="#FF938A"/>
<path d="M367.389,152.576c-3.055-2.804-7.999-0.86-8.325,3.274l-1.229,15.589     c-0.036,0.455-0.138,0.875-0.275,1.272l1.433,1.625c2.906,3.297,8.348,1.483,8.694-2.898l1.229-15.589     c0.044-0.554,0.176-1.065,0.37-1.534L367.389,152.576z" fill="#FF938A"/>
</g>
<g>
<path d="M357.686,328.275c1.617,1.791,4.286,2.163,6.332,0.884l2.76-1.725l-9.272-10.267     c-2.59-2.867-7.159-1.771-8.367,1.644L357.686,328.275z" fill="#FF938A"/>
<path d="M459.855,443.193l-27.717-26.055c-1.767-1.662-2.079-4.355-0.736-6.376l8.229-12.385     c2.337-3.517-0.496-8.163-4.695-7.696l-6.645,0.739c2.194,1.4,3.149,4.458,1.489,6.957l-8.229,12.385     c-1.342,2.02-1.031,4.714,0.736,6.376l27.717,26.055c3.071,2.887,1.384,8.045-2.8,8.56l-37.863,4.668     c-2.402,0.296-4.243,2.277-4.361,4.693l-0.729,14.877c-0.03,0.61-0.17,1.168-0.382,1.679l1.898,1.742     c3.106,2.85,8.129,0.789,8.335-3.421l0.729-14.877c0.118-2.417,1.959-4.397,4.361-4.693l37.863-4.668     C461.239,451.237,462.926,446.08,459.855,443.193z" fill="#FF938A"/>
<path d="M325.319,348.876c1.636,4.936,8.749,4.347,9.615-0.712l-8.995-27.141     c-1.326-3.999-6.714-4.643-8.945-1.069l-0.824,1.319L325.319,348.876z" fill="#FF938A"/>
<path d="M403.945,313.799l-4.966,37.664c-0.316,2.401,1.142,4.681,3.456,5.4l14.256,4.431     c4.037,1.255,4.769,6.652,1.212,8.935l-22.159,14.225c-4.426,2.841-1.989,9.71,3.239,9.129l6.603-0.734     c-2.753-1.786-3.343-6.243,0.01-8.395l22.159-14.225c3.557-2.284,2.825-7.681-1.212-8.935l-14.256-4.431     c-2.313-0.719-3.772-2.999-3.456-5.4l4.966-37.664c0.55-4.17-4.004-7.098-7.572-4.867l-2.869,1.793     C403.851,311.603,404.097,312.65,403.945,313.799z" fill="#FF938A"/>
<path d="M367.389,453.234c-3.055-2.804-7.999-0.86-8.325,3.274l-1.229,15.589     c-0.036,0.455-0.138,0.875-0.275,1.272l1.433,1.626c2.906,3.297,8.348,1.483,8.694-2.898l1.229-15.589     c0.044-0.554,0.176-1.065,0.37-1.534L367.389,453.234z" fill="#FF938A"/>
<path d="M293.145,334.617c2.1,0.846,4.471,0.15,5.814-1.626l-31.371-12.635c-2.269-0.914-4.553-0.047-5.825,1.621     L293.145,334.617z" fill="#FF938A"/>
</g>
<g>
<path d="M153.261,170.258l4.069,28.23c0.749,5.197,7.997,5.839,9.648,0.855l0.236-0.712     c-0.009-0.05-0.026-0.093-0.033-0.143l-4.069-28.23c-0.601-4.171-5.794-5.752-8.619-2.624l-1.484,1.644     C153.119,169.588,153.211,169.91,153.261,170.258z" fill="#FF938A"/>
<path d="M128.28,179.626c2.046,1.279,4.715,0.906,6.332-0.884l0.76-0.841l-29.596-18.502     c-2.585-1.616-5.679-0.517-6.982,1.793L128.28,179.626z" fill="#FF938A"/>
<path d="M193.072,183.104c1.278,2.047,3.842,2.882,6.081,1.98l4.038-1.626c-0.089-0.118-0.188-0.227-0.267-0.354     l-7.917-12.682c-2.231-3.574-7.619-2.93-8.945,1.069l-0.083,0.25L193.072,183.104z" fill="#FF938A"/>
<path d="M124.909,303.702L98.28,328.138c1.249,3.018,5.297,4.179,7.953,1.742l26.632-24.439     C131.612,302.41,127.555,301.274,124.909,303.702z" fill="#FF938A"/>
<path d="M73.859,241.888l19.457,2.163c1.268,0.141,2.367-0.162,3.249-0.734l-19.5-2.168     C75.848,241.014,74.753,241.317,73.859,241.888z" fill="#FF938A"/>
<path d="M255.198,225.916l-13.244-6.846c-2.154-1.113-3.191-3.616-2.456-5.926l11.516-36.2     c1.276-4.01-2.697-7.694-6.601-6.121l-4.026,1.621c0.917,1.203,1.311,2.82,0.776,4.5l-11.516,36.2     c-0.735,2.31,0.303,4.812,2.456,5.926l13.244,6.846c3.756,1.941,3.531,7.383-0.371,9.009l-35.683,14.871     c-3.839,1.6-4.137,6.922-0.5,8.94l13.644,7.571c3.853,2.138,3.229,7.859-0.995,9.116l-44.971,13.387     c-0.894,0.266-1.696,0.779-2.313,1.479l-29.568,33.547c1.185,3.423,5.814,4.58,8.418,1.625l31-35.172     c0.617-0.7,1.419-1.213,2.313-1.479l44.971-13.387c4.224-1.257,4.848-6.978,0.995-9.116l-13.644-7.571     c-3.636-2.018-3.339-7.34,0.5-8.94l35.683-14.871C258.729,233.299,258.953,227.857,255.198,225.916z" fill="#FF938A"/>
</g>
</g>
<g>
<path d="M289.95,511.996c-1.392,0-2.798-0.387-4.055-1.196c-3.482-2.243-4.486-6.884-2.243-10.366l38.157-59.236    c2.243-3.483,6.884-4.486,10.366-2.244c3.482,2.243,4.486,6.884,2.243,10.367l-38.157,59.236    C294.828,510.783,292.414,511.996,289.95,511.996z"/>
</g>
<g>
<path d="M411.397,190.186c-3.068,0-6.07-1.141-8.446-3.322l-25.256-23.177l-0.853,10.815c-0.396,5.035-3.749,9.321-8.541,10.919    c-4.791,1.596-10.047,0.183-13.386-3.608l-31.004-35.175l-44.976-13.389c-4.855-1.445-8.348-5.633-8.896-10.667    c-0.549-5.035,1.959-9.876,6.388-12.333l9.422-5.228L254.3,91.874c-4.554-1.897-7.509-6.138-7.712-11.067    c-0.203-4.929,2.394-9.398,6.776-11.664l11.607-6L253.91,28.368c-1.489-4.678-0.178-9.66,3.422-13.001    c3.602-3.342,8.671-4.277,13.228-2.443l34.039,13.71l6.948-11.132c2.604-4.171,7.264-6.401,12.137-5.816    c4.883,0.583,8.878,3.846,10.425,8.513l6.103,18.418l2.649-18.379c0.701-4.868,4.06-8.782,8.764-10.214    c4.704-1.434,9.677-0.056,12.973,3.595l8.807,9.753l31.105-19.445c4.162-2.603,9.315-2.569,13.444,0.087    c4.129,2.656,6.295,7.328,5.652,12.195l-4.77,36.183l12.5,3.885c4.711,1.464,8.049,5.41,8.711,10.299    c0.663,4.888-1.505,9.58-5.656,12.245l-13.685,8.785l16.096-1.789c4.892-0.543,9.536,1.731,12.102,5.94    c2.565,4.207,2.465,9.371-0.262,13.476l-7.208,10.847l26.626,25.029c3.584,3.369,4.861,8.366,3.334,13.041    c-1.528,4.676-5.512,7.955-10.395,8.557l-36.388,4.486l-0.639,13.041c-0.241,4.914-3.219,9.127-7.769,10.995    C414.637,189.871,413.007,190.185,411.397,190.186z M375.68,145.923c3.075,0,6.085,1.141,8.456,3.316l25.112,23.044l0.483-9.886    c0.3-6.112,4.926-11.092,10.999-11.841c0.001,0,0.001,0,0.001,0l33.25-4.099l-24.328-22.868    c-4.475-4.207-5.255-10.972-1.857-16.087l5.448-8.201l-21.282,2.366c-5.814,0.648-11.257-2.756-13.216-8.278    c-1.958-5.521,0.117-11.588,5.047-14.753l18.068-11.599l-9.448-2.936c-5.851-1.819-9.518-7.549-8.718-13.623l4.361-33.08    l-28.439,17.779c-5.17,3.232-11.885,2.293-15.968-2.229l-6.687-7.405l-3.386,23.491c-0.834,5.79-5.487,10.194-11.314,10.71    c-5.826,0.516-11.182-3-13.022-8.553l-7.729-23.323l-5.275,8.451c-3.23,5.174-9.678,7.276-15.338,4.996l-31.117-12.532    l10.112,31.787c1.858,5.848-0.748,12.135-6.198,14.951l-8.769,4.533l31.366,13.072c4.48,1.867,7.432,6.037,7.703,10.883    c0.271,4.845-2.197,9.318-6.441,11.673l-8.752,4.856l40.062,11.926c2.263,0.674,4.28,1.965,5.838,3.733l27.642,31.362    l0.793-10.057c0.381-4.824,3.414-8.921,7.917-10.692C372.563,146.214,374.13,145.923,375.68,145.923z"/>
</g>
<g>
<path d="M289.95,206.8c-1.392,0-2.798-0.387-4.055-1.196c-3.482-2.243-4.486-6.884-2.243-10.367l38.157-59.236    c2.243-3.483,6.884-4.486,10.366-2.244c3.482,2.243,4.486,6.884,2.243,10.367l-38.157,59.236    C294.828,205.586,292.414,206.8,289.95,206.8z"/>
</g>
<g>
<path d="M411.397,495.382c-3.068,0-6.07-1.141-8.446-3.322l-25.256-23.177l-0.853,10.815c-0.396,5.035-3.749,9.321-8.541,10.919    c-4.791,1.597-10.047,0.183-13.386-3.608l-31.003-35.175l-44.977-13.389c-4.855-1.445-8.348-5.633-8.896-10.667    c-0.549-5.035,1.959-9.876,6.388-12.333l9.422-5.228L254.3,397.07c-4.555-1.898-7.51-6.139-7.712-11.068s2.394-9.398,6.777-11.663    l11.606-5.999l-11.062-34.775c-1.489-4.678-0.178-9.66,3.423-13.001c3.601-3.342,8.669-4.277,13.228-2.442l34.038,13.71    l6.948-11.132c2.604-4.171,7.264-6.4,12.137-5.816c4.883,0.583,8.878,3.846,10.425,8.513l6.103,18.418l2.649-18.379    c0.701-4.868,4.06-8.782,8.765-10.215c4.709-1.433,9.677-0.055,12.972,3.595l8.807,9.753l31.105-19.445    c4.162-2.603,9.313-2.57,13.444,0.086c4.129,2.655,6.295,7.328,5.652,12.195l-4.77,36.183l12.499,3.885    c4.712,1.465,8.051,5.412,8.712,10.3c0.662,4.888-1.506,9.579-5.657,12.243l-13.685,8.785l16.097-1.789    c4.895-0.543,9.536,1.731,12.102,5.94c2.565,4.207,2.466,9.371-0.262,13.476l-7.208,10.847l26.626,25.03    c3.584,3.368,4.861,8.365,3.334,13.04c-1.528,4.676-5.511,7.955-10.394,8.557l-36.389,4.486l-0.639,13.041    c-0.241,4.914-3.219,9.127-7.769,10.995C414.637,495.067,413.007,495.381,411.397,495.382z M375.68,451.12    c3.075,0,6.085,1.141,8.456,3.316l25.112,23.044l0.483-9.886c0.3-6.112,4.926-11.091,10.999-11.841c0.001,0,0.001,0,0.001,0    l33.25-4.099l-24.328-22.87c-4.474-4.205-5.255-10.97-1.858-16.086l5.449-8.201l-21.282,2.366    c-5.831,0.645-11.258-2.758-13.216-8.279c-1.958-5.521,0.118-11.588,5.048-14.753l18.067-11.598l-9.447-2.936    c-5.853-1.819-9.519-7.549-8.719-13.624l4.361-33.079l-28.439,17.779c-5.167,3.231-11.884,2.293-15.969-2.231l-6.686-7.404    l-3.386,23.491c-0.835,5.79-5.487,10.194-11.314,10.71c-5.826,0.52-11.182-3.001-13.022-8.553l-7.729-23.323l-5.275,8.451    c-3.23,5.174-9.678,7.277-15.338,4.996l-31.116-12.532l10.111,31.786c1.857,5.848-0.749,12.135-6.197,14.951l-8.77,4.533    l31.366,13.072c4.48,1.867,7.432,6.038,7.703,10.883c0.271,4.845-2.197,9.318-6.441,11.673l-8.752,4.856l40.062,11.927    c2.259,0.671,4.277,1.961,5.836,3.731l27.644,31.364l0.793-10.057c0.381-4.824,3.414-8.921,7.917-10.692    C372.563,451.41,374.13,451.12,375.68,451.12z M422.568,470.64L422.568,470.64c0.002,0,0.005,0,0.008-0.001L422.568,470.64z"/>
</g>
<g>
<path d="M100.592,343.592c-1.611,0-3.241-0.314-4.808-0.958c-4.551-1.868-7.528-6.08-7.769-10.993l-0.639-13.043l-36.389-4.486    c-4.883-0.602-8.866-3.881-10.394-8.557c-1.527-4.676-0.25-9.672,3.335-13.041l26.625-25.029l-7.208-10.846    c-2.727-4.106-2.827-9.27-0.262-13.477c2.566-4.207,7.202-6.48,12.102-5.94l16.096,1.79l-13.685-8.785    c-4.151-2.665-6.319-7.357-5.656-12.245c0.662-4.889,4-8.834,8.712-10.299l12.499-3.885l-4.77-36.184    c-0.643-4.865,1.523-9.538,5.652-12.194c4.129-2.657,9.279-2.69,13.444-0.087l31.105,19.445l8.807-9.753    c3.297-3.65,8.266-5.027,12.973-3.595c4.705,1.433,8.063,5.347,8.764,10.215l2.649,18.379l6.103-18.417    c1.547-4.668,5.541-7.93,10.425-8.514c4.875-0.583,9.533,1.645,12.136,5.816l6.949,11.132l34.038-13.71    c4.559-1.835,9.627-0.899,13.228,2.443c3.6,3.341,4.911,8.323,3.421,13.003l-11.061,34.773l11.607,6    c4.382,2.266,6.979,6.735,6.776,11.663c-0.203,4.929-3.157,9.17-7.711,11.068l-31.548,13.147l9.422,5.228    c4.43,2.458,6.936,7.299,6.388,12.334c-0.55,5.035-4.042,9.222-8.896,10.667l-44.976,13.388l-31.004,35.176    c-3.34,3.789-8.595,5.204-13.387,3.607c-4.791-1.598-8.143-5.884-8.54-10.918l-0.853-10.815l-25.256,23.177    C106.662,342.452,103.66,343.592,100.592,343.592z M91.257,303.963c6.075,0.749,10.701,5.728,11.001,11.841l0.483,9.886    l25.112-23.044c3.566-3.272,8.578-4.204,13.083-2.433c4.503,1.771,7.537,5.868,7.917,10.691l0.793,10.058l27.644-31.365    c1.556-1.766,3.573-3.057,5.835-3.73l40.063-11.926l-8.752-4.856c-4.244-2.356-6.712-6.829-6.441-11.674    c0.271-4.845,3.223-9.015,7.702-10.882l31.367-13.071l-8.77-4.534c-5.448-2.816-8.056-9.103-6.197-14.949l10.112-31.788    l-31.118,12.533c-5.655,2.277-12.107,0.177-15.336-4.996l-5.276-8.452l-7.729,23.323c-1.84,5.553-7.188,9.072-13.022,8.553    c-5.827-0.517-10.479-4.92-11.314-10.71l-3.386-23.492l-6.686,7.404c-4.085,4.523-10.8,5.462-15.969,2.231l-28.439-17.779    l4.361,33.08c0.801,6.076-2.866,11.805-8.72,13.624l-9.446,2.936l18.067,11.598c4.93,3.165,7.006,9.232,5.048,14.753    c-1.957,5.521-7.41,8.924-13.216,8.279l-21.283-2.366l5.449,8.2c3.398,5.116,2.617,11.881-1.857,16.087l-24.328,22.869    L91.257,303.963z M89.423,318.851L89.423,318.851L89.423,318.851z M89.422,318.851L89.422,318.851L89.422,318.851L89.422,318.851z    "/>
</g>
<g>
<path d="M222.039,360.207c-2.465,0-4.878-1.213-6.311-3.439l-38.157-59.236c-2.243-3.482-1.239-8.123,2.243-10.367    c3.482-2.243,8.124-1.238,10.366,2.244l38.157,59.236c2.243,3.482,1.239,8.123-2.243,10.367    C224.838,359.82,223.43,360.207,222.039,360.207z"/>
</g>
</g>
</svg>