<svg width="144" height="144" viewBox="0 0 144 144" fill="none" xmlns="http://www.w3.org/2000/svg">
<g clip-path="url(#clip0_3292_8636)">
<path d="M143.539 71.7693C143.539 32.1322 111.406 0 71.7693 0C32.1322 0 0 32.1322 0 71.7693C0 111.406 32.1322 143.539 71.7693 143.539C111.406 143.539 143.539 111.406 143.539 71.7693Z" fill="#E9CA68"/>
<path d="M103.767 73.7916C98.7996 73.7916 94.6767 77.5003 93.9876 82.3082H90.5112C85.3427 82.3082 81.1373 86.5392 81.1373 91.739V100.654C81.1373 106.996 76.0089 112.153 69.7077 112.153C63.4065 112.153 58.2782 106.994 58.2782 100.654V95.2411C61.3226 94.581 63.6118 91.8529 63.6118 88.5954V84.2884C75.3056 81.2635 83.9716 70.5673 83.9716 57.8838L84.0755 44.2696C84.0755 39.4236 80.4032 35.4229 75.7115 34.9362C74.5669 32.1891 70.2317 30.0047 67.4586 30.0047C64.013 30.0047 61.2069 32.8254 61.2069 36.2943C61.2069 39.7631 64.0107 42.5838 67.4586 42.5838C70.1821 42.5838 74.4112 40.4778 75.6478 37.802C78.8055 38.2436 81.2435 40.974 81.2435 44.2601L81.1396 57.8743C81.1396 71.3413 70.2505 82.2964 56.8645 82.2964C43.4785 82.2964 32.5895 71.3413 32.5895 57.8957L32.8113 44.2672C32.8113 40.9313 35.3082 38.1747 38.5202 37.783C39.7474 40.4659 43.9883 42.5791 46.7165 42.5791C50.1621 42.5791 52.9682 39.7584 52.9682 36.2895C52.9682 32.8207 50.1644 30 46.7165 30C43.9458 30 39.62 32.1796 38.4683 34.9219C33.7176 35.3493 29.9816 39.3737 29.9816 44.2411L29.7598 57.8696C29.7598 70.5578 38.4163 81.2493 50.1007 84.2813V88.593C50.1007 91.8577 52.3994 94.5905 55.4532 95.2434V100.652C55.4532 108.563 61.8513 115 69.7148 115C77.5784 115 83.9763 108.563 83.9763 100.652V91.7366C83.9763 88.1087 86.9099 85.155 90.5183 85.155H93.9946C94.6837 89.9654 98.8066 93.6717 103.774 93.6717C109.224 93.6717 113.656 89.2127 113.656 83.7304C113.656 78.2482 109.224 73.7892 103.774 73.7892L103.767 73.7916ZM71.2583 38.386C70.0028 39.1909 68.4757 39.7299 67.4562 39.7299C65.5706 39.7299 64.0366 38.1866 64.0366 36.2895C64.0366 34.3925 65.5706 32.8492 67.4562 32.8492C69.6959 32.8492 73.1651 35.1332 73.1651 36.2895C73.1651 36.6409 72.6578 37.4885 71.2583 38.3837V38.386ZM42.9074 34.1954C44.1629 33.3905 45.6899 32.8515 46.7094 32.8515C48.5951 32.8515 50.129 34.3948 50.129 36.2919C50.129 38.189 48.5951 39.7323 46.7094 39.7323C44.4698 39.7323 41.0006 37.4482 41.0006 36.2919C41.0006 35.9405 41.5079 35.0929 42.9074 34.1978V34.1954ZM52.9257 88.593V84.8535C54.2119 85.0434 55.5241 85.1408 56.8622 85.1408C58.2003 85.1408 59.5006 85.0411 60.7797 84.8559V88.593C60.7797 90.7702 59.0193 92.5439 56.8528 92.5439C54.6863 92.5439 52.9257 90.7726 52.9257 88.593ZM103.767 90.8249C99.8805 90.8249 96.7181 87.6433 96.7181 83.7328C96.7181 79.8223 99.8805 76.6408 103.767 76.6408C107.654 76.6408 110.817 79.8223 110.817 83.7328C110.817 87.6433 107.654 90.8249 103.767 90.8249Z" fill="white"/>
</g>
<defs>
<clipPath id="clip0_3292_8636">
<rect width="143.539" height="143.539" fill="white"/>
</clipPath>
</defs>
</svg>
