<svg width="143" height="143" viewBox="0 0 143 143" fill="none" xmlns="http://www.w3.org/2000/svg">
<g clip-path="url(#clip0_3292_8629)">
<path d="M142.723 71.3615C142.723 31.9496 110.773 0 71.3615 0C31.9496 0 0 31.9496 0 71.3615C0 110.773 31.9496 142.723 71.3615 142.723C110.773 142.723 142.723 110.773 142.723 71.3615Z" fill="#50AAE7"/>
<path d="M113.705 52.2168L109.865 40.4964C109.363 38.9664 108.13 37.8304 106.566 37.4593C104.999 37.0882 103.386 37.5478 102.25 38.6867L84.6948 56.3415L58.8763 30.5201C57.2835 28.9273 54.9656 28.3735 52.8248 29.0757L41.1044 32.915C39.5744 33.4174 38.4383 34.6505 38.0672 36.2147C37.6962 37.7818 38.1557 39.3946 39.2947 40.5307L56.9723 58.1113L30.463 84.6207C28.8702 86.2135 28.3164 88.5313 29.0186 90.6721L32.8579 102.393C33.3602 103.923 34.5934 105.059 36.1605 105.43C36.5173 105.515 36.8798 105.555 37.2337 105.555C38.4383 105.555 39.5972 105.081 40.4735 104.199L58.882 85.6911L85.3913 112.2C86.5274 113.337 88.0346 113.945 89.5817 113.945C90.2039 113.945 90.8291 113.847 91.4428 113.645L103.163 109.806C104.693 109.303 105.829 108.07 106.2 106.503C106.571 104.936 106.112 103.323 104.973 102.187L86.6045 83.9213L112.26 58.2654C113.853 56.6727 114.407 54.3548 113.705 52.214V52.2168ZM104.274 40.7019C104.71 40.2652 105.304 40.094 105.906 40.2367C106.509 40.3794 106.962 40.799 107.154 41.3842L110.993 53.1046C111.161 53.6184 111.19 54.1522 111.09 54.6603C106.095 59.4244 100.634 58.3796 95.3505 57.3663C93.0613 56.9267 90.7377 56.4814 88.5113 56.5556L104.276 40.7019H104.274ZM76.965 64.1171C74.0049 62.1418 70.0914 62.1761 67.1628 64.217L62.1389 59.2217C62.0932 59.1589 62.0476 59.0961 61.9905 59.039C59.1931 56.2416 59.8924 52.5908 60.7802 47.9723C61.4196 44.6468 62.1503 40.8304 61.3025 36.9854L82.6853 58.3682L76.9678 64.1199L76.965 64.1171ZM76.1828 75.572C76.1828 75.572 76.1686 75.592 76.16 75.6006C73.8707 77.7728 70.2427 77.7414 67.9963 75.4978C65.7869 73.2885 65.7241 69.7375 67.7964 67.4425C67.9163 67.3769 68.0334 67.2998 68.1361 67.197C68.2275 67.1057 68.2988 67.0001 68.3616 66.8916C69.4492 65.9725 70.7908 65.5101 72.1352 65.5101C73.4797 65.5101 74.7214 65.9382 75.7832 66.786C75.846 66.8973 75.9174 67.0029 76.0116 67.0943C76.1286 67.2113 76.2599 67.297 76.4026 67.3626C78.5463 69.6519 78.5064 73.2571 76.2742 75.4921C76.2428 75.5178 76.2114 75.5378 76.1828 75.5663V75.572ZM40.8446 36.877C40.9874 36.2747 41.407 35.8208 41.9921 35.6296L53.7125 31.7903C54.2263 31.6219 54.7601 31.5934 55.2682 31.6933C60.0323 36.6886 58.9876 42.1492 57.9742 47.4328C57.5347 49.722 57.0894 52.0484 57.1636 54.2749L41.3099 38.5097C40.8732 38.073 40.7019 37.4793 40.8446 36.877ZM65.1161 66.2094C63.0352 69.041 62.8839 72.8574 64.6651 75.8318L59.1731 81.3523C59.1075 81.398 59.0418 81.4494 58.9819 81.5065C56.1845 84.3038 52.5336 83.6045 47.9151 82.7168C44.5897 82.0774 40.7733 81.3466 36.9283 82.1944L58.999 60.1237L65.1161 66.2066V66.2094ZM38.4526 102.187C38.0159 102.624 37.4221 102.795 36.8227 102.652C36.2204 102.51 35.7665 102.09 35.5753 101.505L31.736 89.7844C31.5676 89.2706 31.5391 88.7368 31.639 88.2287C36.6343 83.4646 42.0949 84.5093 47.3785 85.5227C49.6678 85.9623 51.9942 86.4076 54.2206 86.3334L38.4526 102.187ZM66.5205 78.0126C68.1361 79.3799 70.1342 80.065 72.1352 80.065C73.8793 80.065 75.6205 79.5426 77.1077 78.5064L82.1344 83.5046C82.1801 83.5674 82.2257 83.6273 82.28 83.6844C82.5169 83.9213 82.7281 84.1668 82.9194 84.418C82.965 84.7035 83.0963 84.9746 83.3161 85.1944C83.3761 85.2544 83.4446 85.3057 83.5102 85.3543C84.809 87.889 84.2124 91.0004 83.4903 94.7512C82.8509 98.0766 82.1201 101.893 82.9679 105.738L60.8944 83.6673L66.5176 78.0126H66.5205ZM103.426 105.844C103.283 106.446 102.863 106.9 102.278 107.091L90.5579 110.93C90.0441 111.099 89.5103 111.127 89.0022 111.027C84.2381 106.032 85.28 100.571 86.2962 95.2878C86.7358 92.9985 87.1811 90.6721 87.1069 88.4457L102.961 104.211C103.397 104.648 103.569 105.241 103.426 105.841V105.844ZM79.1543 76.514C81.4322 73.4141 81.3951 69.1352 79.0487 66.0724L83.5759 61.5195C83.6358 61.4767 83.6929 61.4339 83.7472 61.3797C86.5445 58.5823 90.1954 59.2816 94.8139 60.1694C98.1394 60.8088 101.956 61.5395 105.801 60.6917L84.5835 81.9089L79.1572 76.5112L79.1543 76.514Z" fill="white"/>
</g>
<defs>
<clipPath id="clip0_3292_8629">
<rect width="142.723" height="142.723" fill="white"/>
</clipPath>
</defs>
</svg>
