<svg width="144" height="144" viewBox="0 0 144 144" fill="none" xmlns="http://www.w3.org/2000/svg">
<g clip-path="url(#clip0_3292_8649)">
<path d="M143.539 71.7693C143.539 32.1322 111.406 0 71.7693 0C32.1322 0 0 32.1322 0 71.7693C0 111.406 32.1322 143.539 71.7693 143.539C111.406 143.539 143.539 111.406 143.539 71.7693Z" fill="#E9A968"/>
<path d="M114.056 66.3951L104.485 57.8086V35.1668C104.485 34.3745 103.842 33.7315 103.049 33.7315H90.1308C89.3385 33.7315 88.6955 34.3745 88.6955 35.1668V43.6414L72.7282 29.3162C72.1828 28.8282 71.356 28.8282 70.8106 29.3162L29.4829 66.3951C29.0408 66.7913 28.8887 67.42 29.1011 67.9769C29.3136 68.531 29.8475 68.8984 30.4418 68.8984H37.4493V113.157C37.4493 113.949 38.0924 114.592 38.8847 114.592H104.651C105.444 114.592 106.087 113.949 106.087 113.157V68.8984H113.094C113.688 68.8984 114.222 68.531 114.435 67.9769C114.647 67.42 114.495 66.7913 114.053 66.3951H114.056ZM91.5662 46.1906V36.6022H101.614V55.2307L91.5662 46.2136C91.5662 46.2136 91.5662 46.1964 91.5662 46.1877V46.1906ZM104.654 66.0276C103.862 66.0276 103.219 66.6707 103.219 67.463V111.722H40.323V67.463C40.323 66.6707 39.6799 66.0276 38.8876 66.0276H34.1939L71.7723 32.3104L109.351 66.0276H104.657H104.654Z" fill="white"/>
<path d="M49.7651 79.19C49.7651 91.3219 59.6348 101.194 71.7696 101.194C83.9043 101.194 93.7741 91.3248 93.7741 79.19C93.7741 67.0553 83.9043 57.1855 71.7696 57.1855C59.6348 57.1855 49.7651 67.0553 49.7651 79.19ZM90.9033 79.19C90.9033 89.7401 82.3197 98.3237 71.7696 98.3237C61.2195 98.3237 52.6359 89.7401 52.6359 79.19C52.6359 68.6399 61.2195 60.0563 71.7696 60.0563C82.3197 60.0563 90.9033 68.6399 90.9033 79.19Z" fill="white"/>
<path d="M67.6986 69.1914V75.0535H61.8364C59.7264 75.0535 58.0068 76.8966 58.0068 79.1616C58.0068 81.4267 59.7236 83.2697 61.8364 83.2697H67.6986V89.1318C67.6986 91.2418 69.5416 92.9614 71.8066 92.9614C74.0717 92.9614 75.9147 91.2447 75.9147 89.1318V83.2697H81.7768C83.8868 83.2697 85.6064 81.4267 85.6064 79.1616C85.6064 76.8966 83.8897 75.0535 81.7768 75.0535H75.9147V69.1914C75.9147 67.0814 74.0717 65.3618 71.8066 65.3618C69.5416 65.3618 67.6986 67.0785 67.6986 69.1914ZM70.5693 76.4889V69.1914C70.5693 68.6718 71.1349 68.2326 71.8066 68.2326C72.4784 68.2326 73.0439 68.6718 73.0439 69.1914V76.4889C73.0439 77.2813 73.687 77.9243 74.4793 77.9243H81.7768C82.2964 77.9243 82.7357 78.4927 82.7357 79.1616C82.7357 79.8305 82.2964 80.3989 81.7768 80.3989H74.4793C73.687 80.3989 73.0439 81.042 73.0439 81.8343V89.1318C73.0439 89.6514 72.4784 90.0906 71.8066 90.0906C71.1349 90.0906 70.5693 89.6514 70.5693 89.1318V81.8343C70.5693 81.042 69.9263 80.3989 69.1339 80.3989H61.8364C61.3168 80.3989 60.8776 79.8334 60.8776 79.1616C60.8776 78.4899 61.3168 77.9243 61.8364 77.9243H69.1339C69.9263 77.9243 70.5693 77.2813 70.5693 76.4889Z" fill="white"/>
</g>
<defs>
<clipPath id="clip0_3292_8649">
<rect width="143.539" height="143.539" fill="white"/>
</clipPath>
</defs>
</svg>
