<?xml version="1.0" encoding="utf-8"?><!-- Uploaded to: SVG Repo, www.svgrepo.com, Generator: SVG Repo Mixer Tools -->
<svg fill="#000000" width="800px" height="800px" viewBox="0 0 24 24" id="winter" data-name="Flat Color" xmlns="http://www.w3.org/2000/svg" class="icon flat-color"><path id="primary" d="M12,20a1,1,0,0,1-1-1V15.87a4.05,4.05,0,0,1-1-.42L7.76,17.66a1,1,0,0,1-1.42-1.42L8.55,14a4.05,4.05,0,0,1-.42-1H5a1,1,0,0,1,0-2H8.13a4.05,4.05,0,0,1,.42-1L6.34,7.76A1,1,0,0,1,7.76,6.34L10,8.55a4.05,4.05,0,0,1,1-.42V5a1,1,0,0,1,2,0V8.13a4.05,4.05,0,0,1,1,.42l2.21-2.21a1,1,0,1,1,1.42,1.42L15.45,10a4.05,4.05,0,0,1,.42,1H19a1,1,0,0,1,0,2H15.87a4.05,4.05,0,0,1-.42,1l2.21,2.21a1,1,0,0,1-1.42,1.42L14,15.45a4.05,4.05,0,0,1-1,.42V19A1,1,0,0,1,12,20Zm-1.39-6.56a2.13,2.13,0,0,0,2.78,0l0,0,0,0a2,2,0,0,0,0-2.78l0,0,0,0a2.13,2.13,0,0,0-2.78,0l0,0,0,0a2,2,0,0,0,0,2.78l0,0Z" style="fill: rgb(0, 0, 0);"></path><path id="secondary" d="M12,6a1,1,0,0,1-.71-.29l-2-2a1,1,0,0,1,1.42-1.42L12,3.59l1.29-1.3a1,1,0,1,1,1.42,1.42l-2,2A1,1,0,0,1,12,6Zm-3.95,1V4.22a1,1,0,0,0-2,0V6.05H4.22a1,1,0,0,0,0,2H7.05A1,1,0,0,0,8.05,7.05ZM3.71,14.71l2-2a1,1,0,0,0,0-1.42l-2-2a1,1,0,0,0-1.42,1.42L3.59,12l-1.3,1.29a1,1,0,0,0,0,1.42,1,1,0,0,0,1.42,0Zm4.34,5.07V17a1,1,0,0,0-1-1H4.22a1,1,0,1,0,0,2H6.05v1.83a1,1,0,0,0,2,0Zm6.66,1.93a1,1,0,0,0,0-1.42l-2-2a1,1,0,0,0-1.42,0l-2,2a1,1,0,0,0,1.42,1.42L12,20.41l1.29,1.3a1,1,0,0,0,1.42,0ZM18,19.78V18h1.83a1,1,0,0,0,0-2H17a1,1,0,0,0-1,1v2.83a1,1,0,0,0,2,0Zm3.76-5.07a1,1,0,0,0,0-1.42L20.41,12l1.3-1.29a1,1,0,0,0-1.42-1.42l-2,2a1,1,0,0,0,0,1.42l2,2a1,1,0,0,0,1.42,0Zm-.93-7.66a1,1,0,0,0-1-1H18V4.22a1,1,0,1,0-2,0V7.05a1,1,0,0,0,1,1h2.83A1,1,0,0,0,20.78,7.05Z" style="fill: rgb(44, 169, 188);"></path></svg>