<?xml version="1.0" encoding="iso-8859-1"?>
<!-- Uploaded to: SVG Repo, www.svgrepo.com, Generator: SVG Repo Mixer Tools -->
<!DOCTYPE svg PUBLIC "-//W3C//DTD SVG 1.1//EN" "http://www.w3.org/Graphics/SVG/1.1/DTD/svg11.dtd">
<svg fill="#000000" height="800px" width="800px" version="1.1" id="Capa_1" xmlns="http://www.w3.org/2000/svg" xmlns:xlink="http://www.w3.org/1999/xlink" 
	 viewBox="0 0 370.063 370.063" xml:space="preserve">
<path id="XMLID_1293_" d="M176.916,114.962c3.515,3.515,3.516,9.213,0.002,12.729l-3.441,3.442
	c-1.758,1.758-4.062,2.637-6.365,2.637c-2.303,0-4.605-0.878-6.363-2.635c-3.515-3.515-3.516-9.213-0.002-12.729l3.441-3.442
	C167.702,111.449,173.399,111.447,176.916,114.962z M100.619,196.049c-9.687-15.641-14.807-33.621-14.807-51.996V31.691
	C85.813,0.89,174.896,0,185.054,0c10.157,0,99.236,0.89,99.236,31.691c0,30.803-89.079,31.692-99.236,31.692
	c-7.246,0-54.657-0.452-81.241-11.895v92.563c0,15.024,4.188,29.728,12.109,42.52c2.617,4.226,1.313,9.772-2.913,12.39
	c-1.476,0.914-3.112,1.35-4.729,1.35C105.266,200.312,102.322,198.799,100.619,196.049z M104.809,31.691
	c2.613,1.971,9.322,5.375,23.235,8.394c15.751,3.417,35.997,5.299,57.01,5.299c21.012,0,41.258-1.882,57.008-5.299
	c13.913-3.019,20.62-6.423,23.232-8.394c-2.612-1.97-9.32-5.374-23.232-8.393C226.312,19.882,206.065,18,185.054,18
	s-41.258,1.882-57.01,5.299C114.131,26.316,107.423,29.722,104.809,31.691z M144.029,85.689l-3.441-3.442
	c-3.515-3.515-9.212-3.515-12.729-0.002c-3.515,3.515-3.516,9.213-0.002,12.729l3.441,3.442c1.758,1.758,4.062,2.637,6.365,2.637
	c2.303,0,4.605-0.879,6.363-2.635C147.542,94.903,147.543,89.205,144.029,85.689z M275.29,130.25c-4.971,0-9,4.029-9,9
	c0,1.783-0.022,6.949-0.052,7.741c-1.546,43.175-37.967,78.301-81.187,78.301c-2.387,0-4.676,0.948-6.364,2.636
	c-1.688,1.688-2.636,3.978-2.636,6.364l0.002,96.496c0,4.971,4.029,9,9,9s9-4.029,9-9l-0.002-87.902
	c22.389-2.03,43.36-11.61,59.821-27.484c18.653-17.988,29.433-42.055,30.354-67.754c0.053-1.427,0.063-8.331,0.063-8.397
	C284.29,134.279,280.261,130.25,275.29,130.25z M363.625,2.636c-3.516-3.514-9.213-3.514-12.729,0L6.438,347.096
	c-3.515,3.515-3.515,9.214,0,12.729c1.758,1.757,4.061,2.636,6.364,2.636s4.606-0.879,6.364-2.636l344.459-344.46
	C367.14,11.85,367.14,6.15,363.625,2.636z M226.289,315.44c-4.919-0.726-9.496,2.662-10.228,7.577
	c-0.731,4.916,2.661,9.495,7.577,10.228c16.638,2.477,25.354,5.938,29.113,8.136c-7.383,4.396-30.689,10.682-67.698,10.682
	c-37.012,0-60.318-6.286-67.699-10.682c3.759-2.198,12.474-5.659,29.114-8.136c4.916-0.732,8.309-5.311,7.577-10.228
	c-0.731-4.915-5.31-8.308-10.228-7.577c-30.674,4.565-46.227,13.276-46.227,25.892c0,27.346,72.856,28.73,87.462,28.73
	c14.604,0,87.461-1.385,87.461-28.73C272.515,328.718,256.962,320.007,226.289,315.44z M127.859,147.681
	c-3.515,3.515-3.516,9.213-0.002,12.729l3.441,3.442c1.758,1.758,4.062,2.637,6.365,2.637c2.303,0,4.605-0.879,6.363-2.635
	c3.515-3.515,3.516-9.213,0.002-12.729l-3.441-3.442C137.073,144.168,131.376,144.168,127.859,147.681z"/>
</svg>