<?xml version="1.0" encoding="utf-8"?>
<!-- Generator: Adobe Illustrator 27.5.0, SVG Export Plug-In . SVG Version: 6.00 Build 0)  -->
<svg version="1.1" xmlns="http://www.w3.org/2000/svg" xmlns:xlink="http://www.w3.org/1999/xlink" x="0px" y="0px"
	 viewBox="0 0 2500 2500" style="enable-background:new 0 0 2500 2500;" xml:space="preserve">
<g id="Background">
	<rect style="fill:none;" width="2500" height="2500"/>
</g>
<g id="Illustration">
	<g>
		<g>
			<g>
				<path d="M653.841,581.561c-1.097,0-2.057-0.801-2.224-1.919c-0.185-1.232,0.663-2.379,1.894-2.563l9.312-1.395
					c1.214-0.176,2.376,0.662,2.561,1.895c0.185,1.232-0.663,2.378-1.894,2.563l-9.312,1.395
					C654.065,581.552,653.952,581.561,653.841,581.561z"/>
				<path d="M698.438,574.878c-1.096,0-2.057-0.801-2.224-1.919c-0.185-1.23,0.663-2.379,1.893-2.563l9.312-1.397
					c1.224-0.174,2.378,0.662,2.562,1.894c0.185,1.23-0.663,2.379-1.893,2.563l-9.312,1.397
					C698.663,574.87,698.551,574.878,698.438,574.878z"/>
				<path d="M684.737,604.455c-1.099,0-2.062-0.805-2.226-1.927l-1.361-9.303c-0.18-1.23,0.671-2.374,1.903-2.555
					c1.225-0.196,2.374,0.671,2.555,1.903l1.361,9.303c0.18,1.23-0.671,2.374-1.903,2.555
					C684.956,604.449,684.846,604.455,684.737,604.455z"/>
				<path d="M678.216,559.892c-1.099,0-2.062-0.805-2.226-1.928l-1.362-9.305c-0.18-1.23,0.671-2.374,1.902-2.555
					c1.231-0.191,2.376,0.669,2.556,1.903l1.362,9.305c0.18,1.23-0.671,2.374-1.902,2.555
					C678.435,559.885,678.325,559.892,678.216,559.892z"/>
			</g>
			<g>
				<path d="M2078.465,1438.275c-0.277,0-0.557-0.051-0.83-0.159l-8.76-3.465c-1.157-0.458-1.723-1.767-1.265-2.924
					c0.458-1.157,1.769-1.721,2.924-1.265l8.76,3.466c1.157,0.458,1.723,1.767,1.265,2.924
					C2080.21,1437.736,2079.363,1438.275,2078.465,1438.275z"/>
				<path d="M2120.419,1454.879c-0.277,0-0.557-0.051-0.83-0.158l-8.76-3.466c-1.157-0.458-1.723-1.767-1.265-2.924
					c0.458-1.157,1.769-1.721,2.924-1.265l8.76,3.465c1.157,0.458,1.723,1.767,1.265,2.924
					C2122.164,1454.34,2121.317,1454.879,2120.419,1454.879z"/>
				<path d="M2085.08,1470.153c-0.275,0-0.555-0.051-0.827-0.156c-1.157-0.458-1.725-1.767-1.27-2.924l3.448-8.744
					c0.458-1.155,1.763-1.718,2.924-1.27c1.157,0.458,1.725,1.767,1.27,2.924l-3.448,8.744
					C2086.827,1469.612,2085.977,1470.153,2085.08,1470.153z"/>
				<path d="M2101.597,1428.279c-0.275,0-0.554-0.051-0.827-0.156c-1.157-0.458-1.725-1.767-1.27-2.924l3.45-8.744
					c0.458-1.16,1.76-1.721,2.924-1.27c1.157,0.458,1.725,1.767,1.27,2.924l-3.45,8.744
					C2103.344,1427.74,2102.495,1428.279,2101.597,1428.279z"/>
			</g>
			<path d="M2114.896,1297.539c-3.675,0-7.395-0.913-10.819-2.841c-5.151-2.898-8.863-7.626-10.449-13.314
				c-1.588-5.681-0.865-11.642,2.035-16.782c5.987-10.617,19.502-14.388,30.131-8.403c5.151,2.898,8.863,7.626,10.449,13.314
				c1.589,5.681,0.865,11.642-2.035,16.782C2130.149,1293.489,2122.631,1297.539,2114.896,1297.539z M2114.967,1257.863
				c-6.159,0-12.146,3.224-15.378,8.953c-2.308,4.09-2.885,8.834-1.622,13.358c1.265,4.526,4.218,8.291,8.32,10.599
				c8.467,4.755,19.229,1.758,23.997-6.691c2.308-4.09,2.885-8.834,1.622-13.358c-1.265-4.526-4.218-8.291-8.319-10.599
				C2120.859,1258.591,2117.893,1257.863,2114.967,1257.863z"/>
		</g>
		<g>
			<g>
				<g>
					<g>
						<ellipse style="fill:#FFFFFF;" cx="1232.265" cy="1279.794" rx="768.959" ry="777.777"/>
						<path d="M1232.264,2059.824c-206.003,0-399.673-81.14-545.338-228.474c-145.657-147.328-225.873-343.208-225.873-551.556
							c0-208.348,80.217-404.228,225.873-551.556c145.664-147.334,339.335-228.474,545.338-228.474
							c206.002,0,399.676,81.14,545.338,228.474c145.658,147.328,225.873,343.209,225.873,551.556
							c0,208.348-80.215,404.228-225.873,551.556C1631.94,1978.684,1438.266,2059.824,1232.264,2059.824z M1232.264,504.27
							c-422.763,0-766.705,347.9-766.705,775.524s343.942,775.524,766.705,775.524c422.762,0,766.705-347.9,766.705-775.524
							S1655.026,504.27,1232.264,504.27z"/>
					</g>
					<g>
						<path d="M1184.887,758.67c-1.084,0-2.182-0.103-3.29-0.31c-11.139-2.095-22.611-14.487-30.685-33.155
							c-6.092-14.084-5.609-40.403-5.142-65.856c0.38-20.668,0.737-40.187-2.678-49.169c-6.247-16.43-12.776-16.278-27.079-15.961
							c-2.07,0.046-4.269,0.095-6.615,0.095c-13.583,0-22.493-7.692-25.997-14.278c-2.051-3.857-2.333-7.393-0.777-9.701
							l1.868,1.259l-1.868-1.259c25.464-37.775,108.503-28.177,153.114-23.022c51.933,6.003,78.619,28.681,75.143,63.862
							c-3.488,35.274-75.457,75.949-83.652,80.473c-8.511,4.696-12.227,18.043-15.822,30.952
							c-3.176,11.406-6.46,23.203-13.24,30.059C1194.243,756.628,1189.703,758.67,1184.887,758.67z M1121.045,589.636
							c11.652,0,19.791,1.932,26.259,18.943c3.725,9.796,3.36,29.738,2.973,50.852c-0.437,23.81-0.932,50.799,4.772,63.984
							c7.367,17.035,17.859,28.728,27.38,30.516c4.562,0.856,8.775-0.638,12.534-4.44c5.955-6.025,9.08-17.246,12.102-28.098
							c3.844-13.807,7.818-28.081,17.987-33.692c28.966-15.983,78.695-50.183,81.344-76.97
							c3.241-32.803-21.372-53.184-71.175-58.943c-43.659-5.045-124.926-14.441-148.86,21.064c-0.376,0.559-0.416,2.37,1.02,5.067
							c2.917,5.485,10.433,11.888,22.018,11.888c2.31,0,4.477-0.049,6.514-0.095
							C1117.695,589.674,1119.406,589.636,1121.045,589.636z"/>
						<path d="M995.042,1979.516c-8.401,0-18.495-4.731-25.472-11.043c-16.186-14.641-46.214-77.445-59.774-114.248
							c-10.712-29.075-16.326-119.639-20.041-179.565c-1.117-18.008-2.08-33.56-2.908-42.546
							c-2.865-31.091-15.511-35.914-49.308-48.806c-5.413-2.066-11.549-4.405-18.156-7.063
							c-48.236-19.394-52.643-37.773-51.686-78.167c0.086-3.666-0.245-8.443-0.629-13.974c-1.655-23.81-4.154-59.792,20.514-82.108
							c21.982-19.887,33.585-84.365,32.32-111.449c-0.437-9.36,4.869-17.99,13.848-22.525c17.54-8.859,47.18-16.421,88.767-2.189
							c17.328,5.932,25.234,15.598,32.883,24.947c6.394,7.816,13.006,15.9,25.406,22.208c8.735,4.447,19.506,7.169,29.922,9.802
							c21.802,5.512,44.345,11.211,39.123,33.652c-6.546,28.131,29.266,57.448,87.087,71.295
							c33.99,8.139,59.203,30.67,61.314,54.791c1.364,15.592-7.527,28.734-24.395,36.059
							c-42.589,18.496-41.889,31.945-36.984,54.126c1.848,8.364,5.241,17.092,8.523,25.533c6.099,15.691,11.366,29.24,4.856,36.31
							c-9.356,10.157-39.997,19.686-53.369,22.712c-12.723,2.876-27.954,17.794-31.329,43.749
							c-3.546,27.262-47.748,97.488-73.631,127.144c-23.216,26.604-13.49,49.356,5.885,94.685c1.588,3.714,3.237,7.573,4.935,11.591
							c9.383,22.204,9.871,36.493,1.447,42.477C1001.645,1978.722,998.485,1979.516,995.042,1979.516z M835.779,1272.044
							c-7.37,3.723-11.73,10.731-11.377,18.291c1.333,28.558-10.486,93.91-33.798,115.001
							c-23.044,20.848-20.636,55.517-19.042,78.455c0.392,5.644,0.73,10.518,0.638,14.392c-0.923,38.99,3.051,55.462,48.863,73.881
							c6.57,2.643,12.685,4.975,18.08,7.032c33.692,12.852,49.069,18.718,52.19,52.603c0.835,9.054,1.755,23.894,2.919,42.68
							c3.699,59.664,9.288,149.83,19.772,178.287c13.404,36.38,42.883,98.278,58.569,112.466
							c8.405,7.604,22.378,12.806,28.986,8.108c6.284-4.462,5.224-17.62-2.987-37.047c-1.697-4.013-3.345-7.868-4.93-11.576
							c-19.481-45.578-30.212-70.684-5.136-99.418c25.536-29.262,69.107-98.236,72.557-124.764
							c3.674-28.25,20.127-44.244,34.804-47.565c15.978-3.613,43.252-12.903,51.05-21.37c4.605-5.001-0.421-17.933-5.743-31.623
							c-3.342-8.599-6.799-17.493-8.723-26.193c-5.764-26.072-3.738-40.416,39.589-59.231c15.197-6.599,22.903-17.798,21.701-31.535
							c-1.59-18.173-20.38-41.82-57.874-50.799c-61.344-14.692-97.684-45.514-90.427-76.699
							c4.017-17.259-11.002-21.984-35.838-28.261c-10.656-2.695-21.677-5.481-30.862-10.155
							c-13.244-6.742-20.162-15.196-26.851-23.374c-7.581-9.266-14.741-18.021-30.853-23.535
							C880.95,1256.367,852.546,1263.577,835.779,1272.044z"/>
						<path d="M1563.039,1753.218c-4.577,0-8.911-2.26-12.793-6.729c-21.106-24.303-26.408-116.354,5.543-164.123
							c36.132-54.029,12.097-96.183,0.086-111.801c-9.237-12.012-10.711-64.705-10.322-106.795l0.018-2.376
							c0-0.51,0.073-1.316,0.176-2.363c0.649-6.594,2.172-22.039-10.196-33.584c-15.176-14.163-45.67-17.501-90.647-9.921
							c-38.968,6.564-67.731,0.786-85.498-17.176c-19.856-20.072-25.612-54.234-17.108-101.532
							c4.073-22.663,0.387-40.898-2.867-56.989c-1.917-9.481-3.727-18.439-3.727-27.192c0-26.987,36.378-49.378,66.895-63.407
							c18.379-8.449,31.386-18.49,43.963-28.2c11.668-9.004,22.688-17.51,36.453-23.242c19.953-8.313,28.149,5.785,36.079,19.414
							c4.348,7.47,8.843,15.193,15.429,20.743c7.466,6.297,12.309,4.033,19.631,0.603c10.005-4.68,22.454-10.502,45.701,4.189
							c27.489,17.385,58.725,10,71.174-0.462c3.347-2.814,8.561-8.504,5.879-15.015c-3.325-8.071-10.427-10.749-18.652-13.851
							c-10.749-4.053-22.932-8.645-30.512-25.9c-8.324-18.938,6.594-30.877,21.022-42.42c9.615-7.695,19.557-15.653,21.456-25.26
							c1.919-9.693-2.678-22.186-12.61-34.275c-9.873-12.016-23.238-21.079-31.086-21.079c-4.931,0-6.249,9.468-7.776,20.432
							c-2.365,16.984-5.604,40.244-25.902,47.43c-17.95,6.361-35.366-3.248-52.203-12.537
							c-15.101-8.333-30.725-16.945-46.497-13.906c-17.728,3.415-33.544,24.362-50.291,46.537
							c-14.566,19.29-29.63,39.236-47.395,49.393c-12.753,7.292-24.12,5.846-31.185-3.969
							c-11.497-15.966-8.894-50.324,10.533-67.663c23.922-21.35,22.892-50.331,22.338-65.902c-0.073-2.046-0.136-3.855-0.136-5.384
							c0-4.286,1.054-15.206,10.81-24.056c10.881-9.869,28.49-13.69,52.328-11.354c19.227,1.879,33.892-0.94,42.427-8.154
							c7.004-5.923,7.549-12.683,7.569-12.967c6.729-47.677,0.306-63.255-6.262-67.96c-4.847-3.47-10.87-1.663-15.066,0.464
							c-1.659,0.924-6.544,9.334-10.852,16.751c-12.581,21.662-29.814,51.294-45.567,48.091
							c-10.874-2.233-18.155-19.671-22.254-53.314c-5.917-48.544-0.326-79.326,16.621-91.492
							c14.716-10.568,32.272-2.887,34.022-2.077c32.497,11.55,57.827,11.096,75.276-1.371c25.302-18.076,27.594-56.5,27.405-72.182
							c-0.009-0.781,0.387-1.512,1.05-1.93c0.66-0.42,1.494-0.46,2.194-0.121c115.775,56.652,216.678,142.648,291.806,248.695
							c57.011,80.479,97.816,169.822,121.283,265.548c0.075,0.312,0.084,0.636,0.026,0.95c-4.192,22.426-13.011,53.598-31.234,74.75
							c-15.301,17.759-12.936,34.972-10.848,50.159c1.531,11.16,2.981,21.7-3.934,29.471c-2.097,2.357-4.214,5.554-6.262,8.643
							c-4.982,7.523-10.135,15.312-16.907,13.955c-7.868-1.562-18.161-14.659-34.829-99.948
							c-21.293-108.967-69.489-115.467-89.189-113.214c-1.329,0.154-1.723,1.226-1.811,1.549c-0.088,0.317-0.291,1.406,0.744,2.194
							c17.607,13.402,55.649,48.403,28.677,83.868c-28.266,37.164-35.804,69.81-21.229,91.926
							c14.298,21.687,16.362,37.848,8.489,66.51c-2.874,10.467-11.567,21.504-20.773,33.19
							c-17.656,22.41-37.667,47.813-22.052,76.244c25.872,47.103-35.659,192.415-77.652,225.088
							c-19.568,15.226-37.313,37.065-54.476,58.183c-19.803,24.367-38.506,47.384-57.422,56.496
							C1567.714,1752.644,1565.347,1753.218,1563.039,1753.218z M1486.322,1307.1c24.043,0,41.562,5.028,52.304,15.052
							c13.994,13.066,12.258,30.686,11.604,37.32c-0.084,0.852-0.154,1.505-0.154,1.921l-0.018,2.418
							c-0.533,57.647,2.889,95.556,9.389,104.008c12.604,16.386,37.841,60.597,0.086,117.051
							c-30.378,45.419-25.687,135.862-5.884,158.666c4.48,5.16,9.226,6.443,14.511,3.89c18.007-8.674,36.402-31.311,55.88-55.277
							c17.321-21.315,35.232-43.355,55.204-58.896c19.968-15.537,45.289-58.041,63.011-105.766
							c19.158-51.596,24.188-94.062,13.457-113.597c-17.048-31.044,3.943-57.693,22.463-81.203
							c8.916-11.316,17.336-22.005,19.97-31.592c8.381-30.521,4.128-44.581-7.908-62.837c-9.096-13.805-18.412-44.779,21.405-97.134
							c24.51-32.228-11.29-64.972-27.819-77.553c-2.183-1.661-3.087-4.333-2.361-6.973c0.719-2.625,2.935-4.522,5.642-4.832
							c20.956-2.412,72.112,4.17,94.126,116.827c12.166,62.254,22.692,94.685,31.284,96.392c3.804,0.733,8.306-6.035,12.274-12.025
							c2.134-3.221,4.341-6.555,6.652-9.151c5.534-6.218,4.344-14.887,2.836-25.86c-2.108-15.332-4.731-34.413,11.897-53.712
							c17.442-20.245,26.006-50.317,30.129-72.16c-23.35-94.997-63.878-183.66-120.468-263.543
							c-73.989-104.441-173.127-189.324-286.869-245.657c-0.244,18.093-4.088,54.251-29.289,72.257
							c-18.734,13.387-45.481,14.027-79.509,1.912c-0.07-0.026-0.145-0.057-0.214-0.09c-0.165-0.077-16.61-7.712-29.597,1.642
							c-10.645,7.666-21.843,29.029-14.747,87.263c4.713,38.664,12.766,48.229,18.69,49.446
							c12.548,2.555,30.219-27.79,40.764-45.941c6.709-11.549,10.051-17.16,12.716-18.509c7.51-3.796,14.513-3.835,19.722-0.106
							c11.028,7.897,13.761,32.149,8.119,72.081c-0.002,0.172-0.585,8.632-9.008,15.836c-9.609,8.221-25.049,11.349-45.908,9.312
							c-22.514-2.205-38.961,1.232-48.861,10.207c-8.423,7.637-9.332,17.033-9.332,20.718c0,1.483,0.064,3.239,0.134,5.224
							c0.579,16.311,1.657,46.667-23.841,69.425c-17.486,15.605-20.089,47.483-9.877,61.667c5.723,7.952,14.467,8.881,25.293,2.691
							c16.962-9.699,31.742-29.269,46.033-48.196c17.284-22.886,33.608-44.504,53.035-48.245
							c17.385-3.355,33.722,5.666,49.527,14.384c16.701,9.215,32.477,17.917,48.522,12.236
							c17.717-6.273,20.615-27.084,22.945-43.804c1.815-13.05,3.386-24.318,12.238-24.318c9.36,0,23.574,9.345,34.567,22.725
							c10.793,13.134,15.73,26.989,13.552,38.011c-2.22,11.222-12.817,19.702-23.064,27.902
							c-13.699,10.964-26.642,21.319-19.713,37.089c6.821,15.519,17.576,19.574,27.979,23.497
							c8.823,3.327,17.158,6.469,21.229,16.351c2.757,6.691,0.152,14.047-7.147,20.182c-13.867,11.653-46.766,19.614-76.481,0.821
							c-21.163-13.371-31.905-8.348-41.384-3.917c-7.598,3.558-14.775,6.911-24.446-1.239c-7.182-6.053-12.089-14.483-16.419-21.922
							c-8.214-14.113-14.157-24.305-30.45-17.521c-13.217,5.505-24.008,13.833-35.432,22.65
							c-12.183,9.404-25.99,20.063-44.834,28.725c-41.446,19.057-64.272,40.121-64.272,59.315c0,8.302,1.767,17.044,3.639,26.301
							c3.331,16.483,7.109,35.168,2.885,58.676c-8.229,45.771-2.887,78.598,15.875,97.567c16.681,16.861,44.121,22.21,81.547,15.9
							C1459.907,1308.424,1473.976,1307.1,1486.322,1307.1z"/>
						<path d="M759.266,1296.69c-4.056,0-8.569-1.331-13.503-3.991c-14.561-7.849-50.955-48.35-84.362-100.1
							c-23.004-35.632-61.142-102.844-58.121-152.653c0.404-6.66,0.765-13.059,1.114-19.238
							c4.072-72.039,6.528-115.522,55.93-194.369c13.648-21.783,20.076-52.557,19.104-91.466c-0.017-0.636,0.237-1.248,0.695-1.685
							c33.524-32.041,70.313-61.684,109.346-88.102c0.504-0.341,1.125-0.46,1.717-0.341l1.928,0.398
							c27.702,5.721,79.266,16.379,134.678-3.928c37.068-13.587,58.744-23.35,73.086-29.812
							c19.174-8.636,25.628-11.554,37.999-9.659c22.616,3.452,41.539,20.404,39.701,35.562
							c-2.82,23.253-28.432,35.043-76.124,35.043c-28.378,0-53.771,14.696-67.927,39.313c-9.025,15.695-11.328,32.701-5.731,42.319
							c5.524,9.49,10.114,13.913,15.845,15.268c9.838,2.328,24.7-4.15,54.86-23.891c55.326-36.213,80.99-4.53,85.573,2.189
							c6.589,9.657-1.443,26.934-9.947,45.226c-3.793,8.159-7.716,16.595-10.402,24.472c-4.724,13.853-4.649,26.798-4.59,37.199
							c0.05,8.495,0.088,15.204-2.436,19.832c-3.699,6.777-16.235,11.563-33.585,18.188c-9.361,3.576-19.971,7.626-31.032,12.694
							c-33.502,15.347-56.552,27.511-71.106,55.666c-9.389,18.162-26.631,28.923-40.484,37.571
							c-9.169,5.721-17.087,10.663-19.629,15.906c-2.279,4.698-2.879,13.426-3.514,22.666c-1.236,18.008-2.637,38.416-16.207,45.983
							c-17.641,9.847-51.823-4.308-65.38-18.283c-6.107-6.295-14.393-9.054-22.164-7.398c-6.453,1.38-11.545,5.613-13.621,11.321
							c-6.272,17.24-2.259,40.482,11.928,69.08c19.837,39.987,29.896,74.114,29.896,101.429c0,31.135-4.97,49.237-15.197,55.343
							C765.094,1295.94,762.309,1296.69,759.266,1296.69z M683.957,735.758c0.858,39.34-5.807,70.615-19.814,92.975
							c-48.787,77.865-51.082,118.486-55.25,192.23c-0.349,6.185-0.711,12.588-1.116,19.255
							c-5.216,86.029,113.267,234.037,140.124,248.515c7.141,3.848,12.995,4.467,17.396,1.837c8.625-5.151,13-22.468,13-51.473
							c0-26.615-9.9-60.067-29.427-99.427c-14.755-29.746-18.835-54.179-12.126-72.622c2.612-7.177,8.934-12.48,16.915-14.186
							c9.301-1.998,19.147,1.252,26.34,8.665c13.995,14.428,45.579,25.495,59.949,17.486c11.436-6.379,12.749-25.493,13.907-42.356
							c0.694-10.111,1.294-18.841,3.954-24.325c3.11-6.41,11.539-11.671,21.298-17.763c13.387-8.355,30.046-18.753,38.868-35.815
							c16.356-31.643,45.27-44.887,73.232-57.695c11.193-5.129,21.877-9.206,31.302-12.806c15.83-6.044,28.334-10.819,31.236-16.137
							c1.967-3.604,1.931-9.802,1.886-17.649c-0.062-10.738-0.139-24.105,4.832-38.678c2.764-8.106,6.737-16.652,10.579-24.917
							c7.599-16.344,15.456-33.245,10.311-40.788c-4.167-6.108-27.579-34.862-79.382-0.957
							c-31.745,20.776-47.021,27.17-58.365,24.505c-7.07-1.672-12.488-6.709-18.703-17.387c-6.481-11.136-4.237-29.518,5.719-46.832
							c14.969-26.032,41.823-41.573,71.833-41.573c45.043,0,69.149-10.456,71.651-31.078c1.535-12.658-15.915-27.513-35.907-30.567
							c-11.048-1.688-16.708,0.862-35.468,9.314c-14.401,6.489-36.166,16.294-73.386,29.933
							c-56.621,20.753-109.001,9.928-137.141,4.11l-0.993-0.205C752.957,675.304,716.878,704.37,683.957,735.758z"/>
						<path d="M1767.547,1840.369c-0.209,0-0.42-0.029-0.629-0.09c-0.781-0.227-1.38-0.858-1.564-1.65
							c-4.101-17.537-4.049-40.075-4.007-58.186l0.009-5.391c0-31.555,31.383-50.606,50.135-61.986
							c20.188-12.249,50.625-45.859,51.844-79.106c1.094-29.896,16.808-42.779,30.675-54.146c3.096-2.537,6.018-4.933,8.768-7.481
							c15.387-14.267,20.996-52.115,17.37-78.996c-4.097-30.417,3.38-38.757,19.585-44.218c6.872-2.317,9.851-10.478,12.478-17.68
							c2.772-7.587,5.646-15.424,13.261-13.719c0,0,0,0,0.002,0c2.61,0.588,9.547,2.145,16.346,45.419
							c0.044,0.29,0.033,0.588-0.035,0.874c-34.204,142.861-107.742,272.78-212.66,375.712
							C1768.698,1840.142,1768.128,1840.369,1767.547,1840.369z M1963.608,1422.012c-2.841,0-4.458,3.556-7.164,10.971
							c-2.83,7.752-6.35,17.396-15.272,20.404c-14.458,4.876-20.281,11.712-16.557,39.346c3.859,28.615-2.106,67.449-18.773,82.904
							c-2.849,2.643-5.963,5.195-8.973,7.661c-13.772,11.29-28.01,22.961-29.031,50.826c-1.278,34.902-32.983,70.037-54.01,82.792
							c-17.939,10.889-47.965,29.117-47.965,58.135l-0.009,5.402c-0.037,16.513-0.086,36.754,3.045,53.164
							c102.646-101.768,174.667-229.693,208.4-370.22c-5.992-37.89-11.721-41.036-12.813-41.283
							C1964.18,1422.048,1963.887,1422.012,1963.608,1422.012z"/>
					</g>
				</g>
			</g>
		</g>
		<g>
			<g>
				<path d="M1005.263,1329.964c-50.489,0-91.417,41.001-91.417,91.578c0,12.644,5.713,30.325,14.284,49.738
					c21.601,48.93,61.353,108.849,73.507,126.751c1.743,2.564,5.504,2.572,7.245,0.007c16.97-24.995,87.796-131.979,87.796-176.496
					C1096.678,1370.965,1055.749,1329.964,1005.263,1329.964z"/>
				<ellipse style="fill:#FFFFFF;" cx="1005.262" cy="1421.321" rx="39.998" ry="40.184"/>
			</g>
			<g>
				<path d="M813.134,706.669c-38.368,0-69.47,31.158-69.47,69.593c0,9.608,4.341,23.045,10.855,37.797
					c16.415,37.183,46.625,82.718,55.86,96.322c1.324,1.949,4.183,1.954,5.506,0.005c12.896-18.995,66.719-100.295,66.719-134.125
					C882.603,737.827,851.5,706.669,813.134,706.669z"/>
				<ellipse style="fill:#FFFFFF;" cx="813.134" cy="776.094" rx="30.396" ry="30.537"/>
			</g>
			<g>
				<path d="M1888.022,924.973c-38.368,0-69.47,31.158-69.47,69.593c0,9.608,4.341,23.045,10.855,37.797
					c16.415,37.183,46.625,82.718,55.86,96.322c1.324,1.949,4.183,1.954,5.506,0.005c12.896-18.995,66.719-100.295,66.719-134.125
					C1957.491,956.131,1926.388,924.973,1888.022,924.973z"/>
				<ellipse style="fill:#FFFFFF;" cx="1888.022" cy="994.398" rx="30.395" ry="30.537"/>
			</g>
		</g>
		<g>
			<g>
				<path style="fill:#FFFFFF;" d="M1754.105,587.572c0.122,0.007,0.243,0.005,0.366,0.015c2.848,0.233-56.46-4.636-56.46-4.636
					c-26.258-2.156-89.109,9.571-90.78,30.11c-1.668,20.51,58.452,42.349,84.71,44.505c0,0,54.267,5.072,55.698,5.189
					c12.92,1.057,24.758-14.927,26.441-35.701C1775.747,606.481,1766.827,588.936,1754.105,587.572z"/>
				
					<ellipse transform="matrix(0.0803 -0.9968 0.9968 0.0803 987.5511 2320.7417)" cx="1751.423" cy="625.201" rx="37.737" ry="22.733"/>
				<g>
					<path style="fill:#FFFFFF;" d="M1729.332,637.955l-44.938-3.69c-17.892-1.469-49.161-14.08-71.007-31.299
						c-3.619,3.067-5.859,6.441-6.156,10.095c-1.668,20.51,58.453,42.349,84.71,44.505l52.427,4.304
						C1736.913,658.95,1731.305,649.787,1729.332,637.955z"/>
					<path d="M1744.371,664.124c-0.062,0-0.123-0.002-0.187-0.007l-52.427-4.306c-26.84-2.205-88.63-24.089-86.773-46.933
						c0.337-4.095,2.673-8.007,6.947-11.631c0.814-0.695,2.011-0.715,2.852-0.051c22.241,17.532,52.953,29.44,69.797,30.822
						l44.938,3.69c1.027,0.086,1.868,0.858,2.037,1.875c1.855,11.118,7.081,19.62,13.635,22.19c1.043,0.407,1.626,1.516,1.375,2.605
						C1746.324,663.407,1745.409,664.124,1744.371,664.124z M1613.501,605.908c-2.473,2.427-3.824,4.891-4.024,7.338
						c-1.474,18.104,55.939,39.881,82.649,42.073l44.192,3.63c-4.183-4.418-7.312-10.975-8.892-18.89l-43.217-3.547
						C1667.082,635.104,1636.279,623.323,1613.501,605.908z"/>
				</g>
				<path d="M1748.87,665.059c-0.471,0-0.942-0.02-1.413-0.057c-1.432-0.119-53.51-4.986-55.726-5.193
					c-26.816-2.203-88.605-24.087-86.748-46.931c1.052-12.896,21.15-21.015,37.826-25.557c18.544-5.052,41.324-7.763,55.387-6.619
					l47.721,3.921c3.708,0.306,6.176,0.508,7.811,0.726c0.161-0.024,0.33-0.033,0.497-0.029l-0.007,0.099
					c0.026,0.004,0.053,0.009,0.079,0.013l0.009-0.108c0.051,0,0.317,0.013,0.368,0.018c0.161,0.015,0.317,0.046,0.467,0.092
					c13.673,2.108,22.932,20.23,21.185,41.8c-0.847,10.46-4.2,20.118-9.442,27.196
					C1761.775,661.33,1755.427,665.059,1748.87,665.059z M1691.061,584.943c-13.486,0-31.729,2.548-47.067,6.726
					c-21.293,5.798-33.874,13.662-34.517,21.574c-1.474,18.107,55.939,39.883,82.649,42.075c0.568,0.053,54.295,5.076,55.702,5.193
					c5.45,0.42,10.922-2.667,15.435-8.762c4.748-6.41,7.791-15.246,8.57-24.879c1.558-19.204-6.504-35.828-17.968-37.058
					c-0.068-0.007-0.134-0.018-0.2-0.031c-6.553-0.539-55.838-4.585-55.838-4.585
					C1695.756,585.024,1693.486,584.943,1691.061,584.943z"/>
			</g>
			<g>
				<path style="fill:#FFFFFF;" d="M1691.246,674.549l-106.833-336.436l-31.941-0.859c0,0-9.914,227.004-14.852,256.176
					c-4.938,29.172-25.482,76.134-25.482,76.134L1691.246,674.549z"/>
				<path d="M1686.646,660.062l-102.233-321.949l-18.15-0.488c6.053,53.256,24.166,215.997,22.306,240.614
					c-2.23,29.506-18.361,78.176-18.361,78.176L1686.646,660.062z"/>
				<path d="M1691.246,676.802c-0.02,0-0.042,0-0.062,0l-179.107-4.986c-0.75-0.022-1.439-0.414-1.842-1.045
					c-0.4-0.634-0.462-1.424-0.161-2.11c0.205-0.469,20.49-47.048,25.324-75.608c4.858-28.701,14.722-253.631,14.821-255.899
					c0.053-1.208,1.047-2.154,2.251-2.154c0.02,0,0.04,0,0.062,0l31.942,0.86c0.957,0.026,1.796,0.658,2.086,1.571l106.833,336.436
					c0.22,0.695,0.09,1.454-0.348,2.038C1692.619,676.47,1691.952,676.802,1691.246,676.802z M1515.518,667.403l172.621,4.806
					l-105.39-331.886l-28.125-0.757c-1.096,24.897-10.082,226.47-14.782,254.24C1535.585,618.953,1520.178,656.425,1515.518,667.403
					z"/>
			</g>
			<path style="fill:#FFFFFF;" d="M1998.091,809.322c-7.615,0-15.717-0.227-24.314-0.675
				c-65.942-3.448-354.624-32.891-520.835-50.133c-63.011-6.539-125.527-19.772-185.81-39.333l-217.246-70.49
				c-0.994-0.321-1.635-1.285-1.55-2.326l2.189-26.925c0.089-1.1,0.964-1.974,2.064-2.064l34.579-2.797L944.644,439.795
				c-0.571-0.7-0.669-1.672-0.248-2.473c0.42-0.799,1.274-1.263,2.178-1.197l62.991,5.173c0.409,0.035,0.803,0.18,1.136,0.42
				l213.61,154.554l727.856,80.029c0.515,0.015,67.007,3.298,103.757,52.423c4.757,3.688,36.259,28.851,32.123,45.397
				C2082.122,797.735,2052.616,809.322,1998.091,809.322z M1052.973,644.955l215.551,69.94
				c59.981,19.464,122.187,32.631,184.885,39.135c166.167,17.24,454.763,46.674,520.604,50.115
				c100.54,5.292,107.405-22.118,109.665-31.117c2.968-11.88-21.189-33.568-30.748-40.922c-0.165-0.128-0.31-0.275-0.436-0.442
				c-35.406-47.613-100.018-50.845-100.665-50.872l-728.602-80.105c-0.387-0.042-0.758-0.185-1.075-0.414L1008.57,445.738
				l-57.089-4.689l141.891,174.007c0.529,0.649,0.655,1.538,0.327,2.308c-0.329,0.77-1.056,1.294-1.891,1.362l-36.946,2.986
				L1052.973,644.955z"/>
			<g>
				<polygon style="fill:#FFFFFF;" points="1096.678,612.846 1119.076,476.164 1147.816,477.726 1184.052,615.559 				"/>
				<path d="M1184.053,617.811c-0.023,0-0.046,0-0.07,0l-87.375-2.713c-0.648-0.022-1.256-0.319-1.669-0.821
					c-0.412-0.502-0.589-1.157-0.484-1.798l22.398-136.683c0.186-1.135,1.197-2.022,2.345-1.884l28.741,1.565
					c0.977,0.053,1.809,0.73,2.057,1.677l36.236,137.831c0.18,0.687,0.026,1.419-0.417,1.976
					C1185.387,617.499,1184.738,617.811,1184.053,617.811z M1099.317,610.674l81.79,2.539l-35.051-133.325l-25.083-1.366
					L1099.317,610.674z"/>
			</g>
			<g>
				<path style="fill:#FFFFFF;" d="M1643.781,819.038c0.122,0.007,0.243,0.005,0.365,0.015c2.848,0.233-56.46-4.637-56.46-4.637
					c-26.258-2.156-89.109,9.571-90.78,30.11c-1.668,20.51,58.452,42.349,84.71,44.505c0,0,54.267,5.073,55.698,5.189
					c12.92,1.057,24.758-14.927,26.441-35.701C1665.423,837.946,1656.502,820.401,1643.781,819.038z"/>
				
					<ellipse transform="matrix(0.0803 -0.9968 0.9968 0.0803 655.3735 2423.6467)" cx="1641.099" cy="856.666" rx="37.737" ry="22.733"/>
				<g>
					<path style="fill:#FFFFFF;" d="M1619.008,869.42l-44.938-3.69c-17.892-1.469-49.161-14.08-71.007-31.298
						c-3.619,3.067-5.859,6.441-6.156,10.094c-1.668,20.51,58.453,42.349,84.71,44.505l52.427,4.305
						C1626.589,890.416,1620.981,881.253,1619.008,869.42z"/>
					<path d="M1634.046,895.589c-0.062,0-0.123-0.002-0.187-0.007l-52.427-4.304c-26.842-2.205-88.63-24.089-86.77-46.935
						c0.334-4.093,2.671-8.005,6.947-11.629c0.818-0.695,2.011-0.715,2.852-0.051c22.243,17.53,52.953,29.438,69.795,30.82
						l44.94,3.69c1.027,0.086,1.868,0.858,2.037,1.877c1.853,11.116,7.076,19.618,13.633,22.188
						c1.043,0.407,1.626,1.516,1.375,2.605C1636,894.871,1635.084,895.589,1634.046,895.589z M1503.179,837.372
						c-2.475,2.429-3.826,4.891-4.025,7.336c-1.474,18.107,55.937,39.885,82.647,42.077l44.192,3.628
						c-4.183-4.418-7.312-10.975-8.889-18.89l-43.219-3.547C1556.759,866.568,1525.956,854.788,1503.179,837.372z"/>
				</g>
				<path d="M1638.545,896.524c-0.471,0-0.942-0.02-1.413-0.057c-1.43-0.117-53.51-4.984-55.726-5.191
					c-26.818-2.203-88.605-24.087-86.746-46.933c1.05-12.896,21.147-21.015,37.824-25.557c18.542-5.05,41.311-7.761,55.387-6.616
					l47.723,3.919c3.714,0.306,6.183,0.508,7.818,0.728c0.172-0.031,0.35-0.04,0.528-0.026l-0.007,0.101
					c0.024,0.004,0.051,0.007,0.075,0.011l0.011-0.106c0.002,0,0.002,0,0.004,0c0.033,0,0.251,0.007,0.284,0.009v0.024
					c13.95,1.729,23.462,20.034,21.695,41.872c-0.849,10.46-4.203,20.118-9.442,27.194
					C1651.453,892.794,1645.102,896.524,1638.545,896.524z M1580.732,816.409c-13.486,0-31.724,2.548-47.063,6.724
					c-21.293,5.798-33.872,13.662-34.515,21.574c-1.474,18.107,55.937,39.885,82.647,42.077c0.568,0.053,54.296,5.074,55.697,5.188
					c5.448,0.46,10.927-2.662,15.442-8.76c4.746-6.407,7.792-15.244,8.57-24.877c1.556-19.204-6.506-35.83-17.97-37.06
					c-0.068-0.007-0.136-0.018-0.202-0.031c-6.568-0.539-55.836-4.583-55.836-4.583
					C1585.429,816.491,1583.156,816.409,1580.732,816.409z"/>
			</g>
			<g>
				<path style="fill:#FFFFFF;" d="M1223.474,598.446l728.448,80.095c0,0,60.233,2.471,97.416,45.585
					c3.555,4.122,38.342,32.397,36.524,49.449c-1.743,16.351-20.604,37.614-111.967,32.821
					c-66.798-3.493-365.191-33.989-520.719-50.125c-62.981-6.534-125.098-19.684-185.349-39.234l-217.245-70.49l2.19-26.924
					l38.854-3.142L946.39,438.372l62.992,5.172L1223.474,598.446z"/>
				<polygon points="982.459,441.334 946.39,438.372 1092.469,615.68 1210.439,630.469 				"/>
				<path d="M2066.035,755.762c0.104,7.194-11.737,15.594-52.601,13.424c-525.588-27.75-851.222-106.771-961.231-142.56
					l-1.621,19.921l217.246,70.49c60.252,19.55,122.368,32.7,185.349,39.234c155.529,16.136,453.922,46.632,520.719,50.125
					c91.363,4.793,110.223-16.471,111.966-32.821c1.819-17.052-32.969-45.327-36.523-49.449
					C2049.339,724.126,2065.834,741.906,2066.035,755.762z"/>
				<path d="M2022.953,701.557c-7.157-4.532-14.453-8.176-21.513-11.105c8.515,11.26,14.622,24.606,11.905,30.456
					c-3.422,7.368-22.862,12.986-32.967,15.454c-3.427,0.837-5.612,4.196-5.007,7.688l1.264,7.287
					c0.654,3.773,4.314,6.26,8.032,5.416c25.425-5.77,46.267-14.583,48.73-24.996
					C2035.783,721.666,2029.451,710.162,2022.953,701.557z"/>
				<path d="M1998.428,809.329c-7.587,0-15.787-0.218-24.65-0.682c-65.942-3.448-354.624-32.891-520.835-50.133
					c-63.011-6.539-125.527-19.772-185.81-39.333l-217.246-70.49c-0.994-0.321-1.635-1.285-1.55-2.326l2.189-26.925
					c0.089-1.1,0.964-1.974,2.064-2.064l34.579-2.797L944.644,439.795c-0.571-0.7-0.669-1.672-0.248-2.473
					c0.42-0.799,1.274-1.263,2.178-1.197l62.991,5.173c0.409,0.035,0.803,0.18,1.136,0.42l213.61,154.554l727.856,80.029
					c0.458,0.013,61.488,3.001,98.876,46.352c0.537,0.623,2.136,2.104,4.161,3.98c11.204,10.377,34.519,31.973,32.897,47.182
					C2086.323,790.531,2068.687,809.329,1998.428,809.329z M1052.973,644.955l215.551,69.94
					c59.981,19.464,122.187,32.631,184.885,39.135c166.167,17.24,454.763,46.674,520.604,50.115
					c68.2,3.584,107.11-7.362,109.61-30.809c1.382-12.96-22.492-35.071-31.478-43.397c-2.295-2.125-3.811-3.529-4.513-4.344
					c-36.127-41.888-95.211-44.779-95.803-44.803l-728.602-80.105c-0.387-0.042-0.758-0.185-1.075-0.414L1008.57,445.738
					l-57.089-4.689l141.891,174.007c0.529,0.649,0.655,1.538,0.327,2.308c-0.329,0.77-1.056,1.294-1.891,1.362l-36.946,2.986
					L1052.973,644.955z"/>
			</g>
			<g>
				<polygon style="fill:#FFFFFF;" points="934.952,731.288 968.202,736.109 1133.779,661.859 1051.372,636.834 				"/>
				<path d="M968.202,738.361c-0.108,0-0.216-0.009-0.324-0.024l-33.25-4.821c-0.886-0.128-1.611-0.768-1.848-1.63
					c-0.238-0.863,0.057-1.784,0.753-2.348l116.421-94.452c0.579-0.473,1.357-0.623,2.074-0.407l82.407,25.024
					c0.899,0.273,1.535,1.076,1.594,2.013c0.059,0.937-0.47,1.815-1.327,2.198l-165.578,74.248
					C968.832,738.295,968.519,738.361,968.202,738.361z M940.367,729.795l27.511,3.989l159.488-71.518l-75.502-22.928
					L940.367,729.795z"/>
			</g>
			<g>
				<path style="fill:#FFFFFF;" d="M1664.621,757.227l-502.74,264.133l-53.363-13.004c0,0,241.728-165.65,273.641-189.858
					c31.914-24.207,81.613-85.953,81.613-85.953L1664.621,757.227z"/>
				<path d="M1450.568,824.983c-29.81,22.456-252.327,154.834-306.792,191.966l18.103,4.411l502.741-264.133L1532,741.136
					C1516.193,759.95,1477.512,804.685,1450.568,824.983z"/>
				<path d="M1161.88,1023.613c-0.178,0-0.358-0.022-0.534-0.064l-16.681-4.064c-1.209-0.295-1.951-1.514-1.656-2.722
					c0.295-1.208,1.518-1.947,2.723-1.657l15.853,3.862l467.295-245.507c1.104-0.579,2.462-0.156,3.043,0.946
					c0.579,1.1,0.154,2.462-0.948,3.041l-468.048,245.905C1162.603,1023.525,1162.242,1023.613,1161.88,1023.613z"/>
				<path style="fill:#FFFFFF;" d="M1629.931,777.708c-0.81,0-1.593-0.438-1.996-1.206c-0.581-1.1-0.156-2.462,0.946-3.041
					l28.312-14.876l-125.443-15.418c-1.234-0.152-2.112-1.276-1.96-2.511c0.15-1.234,1.241-2.134,2.511-1.961l132.597,16.296
					c0.977,0.119,1.765,0.86,1.941,1.831c0.178,0.968-0.295,1.941-1.168,2.398l-34.693,18.227
					C1630.642,777.624,1630.283,777.708,1629.931,777.708z"/>
				<path d="M1145.201,1019.549c-0.177,0-0.356-0.02-0.536-0.064l-36.682-8.94c-0.864-0.211-1.523-0.909-1.683-1.784
					c-0.16-0.874,0.21-1.76,0.943-2.264c2.417-1.655,242.046-165.894,273.552-189.794c31.331-23.766,80.726-84.955,81.221-85.571
					c0.488-0.607,1.245-0.924,2.031-0.823l68.252,8.388c1.234,0.152,2.112,1.276,1.96,2.511c-0.15,1.234-1.234,2.136-2.511,1.961
					l-67.013-8.234c-6.52,8.007-51.653,62.934-81.217,85.36c-29.282,22.21-237.368,164.988-269.568,187.068l31.781,7.745
					c1.209,0.295,1.951,1.514,1.656,2.722C1147.138,1018.858,1146.216,1019.549,1145.201,1019.549z"/>
			</g>
		</g>
		<path d="M1649.404,1529.532c-0.757,0-1.496-0.381-1.921-1.072c-0.653-1.061-0.321-2.449,0.737-3.1
			c7.695-4.733,15.235-9.721,22.415-14.824c1.014-0.719,2.42-0.482,3.142,0.533c0.719,1.014,0.482,2.42-0.532,3.142
			c-7.259,5.16-14.883,10.201-22.661,14.986C1650.214,1529.424,1649.807,1529.532,1649.404,1529.532z M1693.391,1498.221
			c-0.651,0-1.296-0.279-1.743-0.823c-0.79-0.959-0.651-2.381,0.31-3.171c6.894-5.67,13.662-11.655,20.115-17.787
			c0.9-0.86,2.328-0.823,3.184,0.081c0.858,0.9,0.821,2.328-0.081,3.184c-6.531,6.207-13.38,12.265-20.358,18.003
			C1694.401,1498.054,1693.893,1498.221,1693.391,1498.221z M1732.533,1461.031c-0.544,0-1.087-0.196-1.52-0.59
			c-0.918-0.841-0.981-2.264-0.143-3.184c5.943-6.502,11.814-13.374,17.446-20.428c0.775-0.97,2.194-1.133,3.166-0.354
			c0.973,0.777,1.131,2.194,0.354,3.166c-5.695,7.131-11.631,14.082-17.64,20.657
			C1733.752,1460.785,1733.142,1461.031,1732.533,1461.031z M1766.275,1418.866c-0.447,0-0.9-0.132-1.294-0.409
			c-1.019-0.717-1.263-2.121-0.548-3.14c5.041-7.167,10.033-14.711,14.846-22.426c0.658-1.056,2.044-1.377,3.104-0.719
			c1.056,0.658,1.377,2.048,0.72,3.105c-4.856,7.785-9.897,15.398-14.982,22.633
			C1767.681,1418.531,1766.984,1418.866,1766.275,1418.866z M1794.919,1373.066c-0.372,0-0.748-0.092-1.096-0.286
			c-1.087-0.607-1.476-1.98-0.869-3.065c4.262-7.629,8.504-15.633,12.612-23.79c0.559-1.111,1.912-1.558,3.028-0.999
			c1.111,0.561,1.558,1.917,0.999,3.028c-4.139,8.212-8.412,16.274-12.705,23.957
			C1796.477,1372.65,1795.709,1373.066,1794.919,1373.066z M1819.283,1324.839c-0.313,0-0.634-0.066-0.937-0.205
			c-1.131-0.519-1.628-1.857-1.109-2.988c3.63-7.915,7.274-16.219,10.832-24.681c0.484-1.151,1.809-1.677,2.951-1.204
			c1.146,0.482,1.685,1.802,1.204,2.951c-3.576,8.506-7.239,16.854-10.89,24.813
			C1820.953,1324.353,1820.137,1324.839,1819.283,1324.839z M1840.264,1275.032c-0.273,0-0.548-0.048-0.816-0.152
			c-1.16-0.451-1.734-1.756-1.285-2.918c3.162-8.139,6.341-16.639,9.455-25.264c0.42-1.168,1.712-1.784,2.885-1.353
			c1.171,0.422,1.776,1.714,1.353,2.885c-3.125,8.658-6.317,17.193-9.49,25.365
			C1842.017,1274.486,1841.166,1275.032,1840.264,1275.032z M1858.641,1224.202c-0.24,0-0.482-0.037-0.722-0.119
			c-1.177-0.398-1.811-1.677-1.413-2.856c2.783-8.247,5.609-16.877,8.394-25.647c0.376-1.184,1.641-1.846,2.83-1.465
			c1.186,0.376,1.842,1.644,1.465,2.83c-2.794,8.797-5.626,17.451-8.421,25.726
			C1860.458,1223.61,1859.58,1224.202,1858.641,1224.202z M1875.02,1172.686c-0.213,0-0.431-0.031-0.647-0.095
			c-1.193-0.359-1.868-1.615-1.512-2.805c2.511-8.361,5.061-17.081,7.58-25.913c0.343-1.199,1.602-1.879,2.786-1.549
			c1.197,0.341,1.89,1.589,1.549,2.786c-2.526,8.852-5.083,17.592-7.598,25.97C1876.886,1172.056,1875.99,1172.686,1875.02,1172.686
			z"/>
		<g>
			<g>
				<g>
					<path style="fill:#FFFFFF;" d="M1829.154,1557.952v168.444h19.804v-162.553c0-12.67,10.223-22.94,22.834-22.94h98.373
						c12.611,0,22.834,10.271,22.834,22.94v162.553h19.804v-168.444c0-19.673-15.874-35.621-35.456-35.621H1864.61
						C1845.028,1522.331,1829.154,1538.279,1829.154,1557.952z"/>
					<path d="M2012.803,1728.649h-19.805c-1.245,0-2.253-1.008-2.253-2.253v-162.554c0-11.407-9.233-20.688-20.58-20.688h-98.373
						c-11.349,0-20.582,9.281-20.582,20.688v162.554c0,1.245-1.008,2.253-2.253,2.253h-19.803c-1.245,0-2.253-1.008-2.253-2.253
						v-168.444c0-20.883,16.916-37.874,37.709-37.874h112.736c20.793,0,37.709,16.991,37.709,37.874v168.444
						C2015.056,1727.641,2014.048,1728.649,2012.803,1728.649z M1995.251,1724.143h15.299v-166.191
						c0-18.399-14.894-33.368-33.203-33.368H1864.61c-18.309,0-33.203,14.969-33.203,33.368v166.191h15.297v-160.301
						c0-13.893,11.255-25.194,25.088-25.194h98.373c13.834,0,25.086,11.301,25.086,25.194V1724.143z"/>
				</g>
				<g>
					<path style="fill:#FFFFFF;" d="M1963.337,1545.436h-84.119c-3.204,0-5.802-2.598-5.802-5.802v-16.644
						c0-3.205,2.598-5.802,5.802-5.802h84.119c3.204,0,5.802,2.598,5.802,5.802v16.644
						C1969.14,1542.839,1966.542,1545.436,1963.337,1545.436z"/>
					<path d="M1963.337,1547.689h-84.119c-4.442,0-8.055-3.613-8.055-8.055v-16.643c0-4.443,3.613-8.055,8.055-8.055h84.119
						c4.442,0,8.055,3.613,8.055,8.055v16.643C1971.392,1544.076,1967.78,1547.689,1963.337,1547.689z M1879.218,1519.441
						c-1.956,0-3.549,1.593-3.549,3.549v16.643c0,1.956,1.593,3.549,3.549,3.549h84.119c1.956,0,3.549-1.593,3.549-3.549v-16.643
						c0-1.956-1.593-3.549-3.549-3.549H1879.218z"/>
				</g>
			</g>
			<g>
				<ellipse cx="1982.391" cy="2136.2" rx="22.293" ry="22.397"/>
				<ellipse cx="1844.509" cy="2136.2" rx="22.293" ry="22.397"/>
			</g>
			<g>
				<g>
					<path d="M2018.486,2131.419H1829.74c-23.848,0-43.181-19.333-43.181-43.181v-333.707c0-23.848,19.333-43.181,43.181-43.181
						h188.745c23.848,0,43.181,19.333,43.181,43.181v333.707C2061.667,2112.086,2042.334,2131.419,2018.486,2131.419z"/>
					<path style="fill:#FFFFFF;" d="M2018.486,2133.672h-188.747c-25.051,0-45.433-20.382-45.433-45.433v-333.707
						c0-25.053,20.382-45.435,45.433-45.435h188.747c25.051,0,45.433,20.382,45.433,45.435v333.707
						C2063.919,2113.29,2043.537,2133.672,2018.486,2133.672z M1829.739,1713.603c-22.567,0-40.926,18.36-40.926,40.928v333.707
						c0,22.567,18.36,40.926,40.926,40.926h188.747c22.567,0,40.926-18.36,40.926-40.926v-333.707
						c0-22.569-18.36-40.928-40.926-40.928H1829.739z"/>
				</g>
				<g>
					<g>
						<path style="fill:#FFFFFF;" d="M1955.084,2132.004h-188.745c-23.848,0-43.181-19.333-43.181-43.181v-333.707
							c0-23.848,19.333-43.181,43.181-43.181h188.745c23.848,0,43.181,19.333,43.181,43.181v333.707
							C1998.265,2112.671,1978.933,2132.004,1955.084,2132.004z"/>
						<path d="M1955.084,2134.257h-188.745c-25.053,0-45.435-20.382-45.435-45.435v-333.705c0-25.053,20.382-45.435,45.435-45.435
							h188.745c25.053,0,45.435,20.382,45.435,45.435v333.705C2000.518,2113.875,1980.137,2134.257,1955.084,2134.257z
							 M1766.339,1714.188c-22.569,0-40.928,18.36-40.928,40.928v333.705c0,22.569,18.36,40.928,40.928,40.928h188.745
							c22.569,0,40.928-18.359,40.928-40.928v-333.705c0-22.569-18.36-40.928-40.928-40.928H1766.339z"/>
					</g>
					<g>
						<path d="M1779.762,2087.832h-1.96c-5.593,0-10.127-4.534-10.127-10.127v-311.472c0-5.593,4.534-10.127,10.127-10.127h1.96
							c5.593,0,10.127,4.534,10.127,10.127v311.472C1789.89,2083.298,1785.355,2087.832,1779.762,2087.832z"/>
						<path d="M1834.382,2087.832h-1.96c-5.593,0-10.127-4.534-10.127-10.127v-311.472c0-5.593,4.534-10.127,10.127-10.127h1.96
							c5.593,0,10.127,4.534,10.127,10.127v311.472C1844.509,2083.298,1839.975,2087.832,1834.382,2087.832z"/>
						<path d="M1889.001,2087.832h-1.96c-5.593,0-10.127-4.534-10.127-10.127v-311.472c0-5.593,4.534-10.127,10.127-10.127h1.96
							c5.593,0,10.127,4.534,10.127,10.127v311.472C1899.129,2083.298,1894.595,2087.832,1889.001,2087.832z"/>
						<path d="M1943.621,2087.832h-1.96c-5.593,0-10.127-4.534-10.127-10.127v-311.472c0-5.593,4.534-10.127,10.127-10.127h1.96
							c5.593,0,10.127,4.534,10.127,10.127v311.472C1953.748,2083.298,1949.214,2087.832,1943.621,2087.832z"/>
					</g>
				</g>
			</g>
		</g>
		<g>
			<g>
				<g>
					<g>
						<path style="fill:#FFFFFF;" d="M1385.516,1999.121l-17.349,66.093c-3.468,13.211-4.383,26.967-2.697,40.524l3.474,27.922
							l-87.627-14.366l11.322-8.38c19.66-14.551,33.547-35.636,39.192-59.504l15.079-63.763L1385.516,1999.121z"/>
						<path d="M1368.945,2135.912c-0.121,0-0.242-0.009-0.365-0.029l-87.628-14.366c-0.893-0.147-1.613-0.814-1.824-1.694
							c-0.213-0.88,0.121-1.802,0.849-2.341l11.323-8.379c19.209-14.219,32.825-34.891,38.339-58.214l15.079-63.761
							c0.143-0.603,0.528-1.12,1.065-1.43c0.535-0.313,1.175-0.387,1.771-0.211l38.605,11.475c1.166,0.348,1.846,1.556,1.536,2.733
							l-17.35,66.092c-3.411,12.993-4.297,26.342-2.638,39.672l3.474,27.924c0.088,0.704-0.161,1.408-0.673,1.901
							C1370.085,2135.689,1369.524,2135.912,1368.945,2135.912z M1286.943,2117.933l79.395,13.015l-3.102-24.934
							c-1.732-13.902-0.805-27.823,2.753-41.373l16.795-63.981l-34.228-10.174l-14.529,61.442
							c-5.76,24.355-19.981,45.947-40.046,60.797L1286.943,2117.933z"/>
					</g>
					<g>
						<g>
							<path style="fill:#FFFFFF;" d="M1377.474,2147.311c0.66-11.667,0.82-34.901-6.753-49.47
								c-1.348-2.593-4.459-3.709-7.162-2.622l-20.05,8.059c-3.113,1.251-6.499-1.052-6.499-4.42v-1.374
								c0-1.952-1.521-3.562-3.461-3.664l-17.273-0.908c-6.445-0.339-12.869,0.882-18.758,3.535
								c-17.862,8.045-55.795,27.044-64.861,46.906c-2.061,4.516,1.286,9.676,6.226,9.898c15.66,0.705,55.276,1.953,131.024,1.304
								C1373.936,2154.521,1377.246,2151.353,1377.474,2147.311z"/>
							<path d="M1329.211,2156.991c-48.898,0-76.9-0.88-90.431-1.49c-3.13-0.141-5.981-1.831-7.626-4.522
								c-1.598-2.612-1.802-5.813-0.548-8.562c9.153-20.052,45.271-38.697,65.987-48.027c6.205-2.797,13.057-4.079,19.801-3.732
								l17.273,0.909c3.138,0.165,5.596,2.761,5.596,5.915v1.373c0,0.852,0.403,1.611,1.102,2.084
								c0.695,0.469,1.534,0.554,2.304,0.246l20.049-8.058c3.822-1.536,8.119,0.046,10.005,3.675
								c7.741,14.894,7.708,38.119,6.999,50.636c-0.29,5.21-4.594,9.323-9.796,9.369
								C1354.981,2156.936,1341.443,2156.991,1329.211,2156.991z M1314.196,2095.108c-5.393,0-10.799,1.16-15.752,3.393
								c-16.214,7.301-54.879,26.377-63.738,45.787c-0.641,1.406-0.535,2.988,0.294,4.339c0.863,1.413,2.352,2.299,3.984,2.372
								c16.871,0.761,56.308,1.938,130.903,1.302c2.834-0.024,5.177-2.273,5.338-5.116c0.682-12.056,0.744-34.365-6.502-48.306
								c-0.812-1.562-2.673-2.229-4.324-1.571l-20.049,8.058c-2.15,0.865-4.585,0.607-6.506-0.693
								c-1.934-1.305-3.087-3.481-3.087-5.818v-1.373c0-0.755-0.583-1.375-1.325-1.413l-17.275-0.909
								C1315.503,2095.126,1314.85,2095.108,1314.196,2095.108z"/>
						</g>
						<path d="M1307.03,2143.593c-36.341,0-53.707-1.969-53.951-1.998c-1.235-0.145-2.12-1.265-1.975-2.5
							c0.144-1.234,1.265-2.11,2.501-1.976c0.347,0.042,35.581,4.024,111.259,0.546c1.245-0.071,2.297,0.904,2.354,2.147
							c0.057,1.243-0.904,2.297-2.148,2.354C1342.07,2143.223,1322.766,2143.593,1307.03,2143.593z"/>
						<path d="M1287.337,2124.881c-0.733,0-1.45-0.356-1.883-1.014c-0.684-1.039-0.398-2.436,0.642-3.12l29.817-19.645
							c1.039-0.682,2.436-0.394,3.12,0.642c0.684,1.039,0.398,2.436-0.642,3.12l-29.817,19.645
							C1288.193,2124.76,1287.761,2124.881,1287.337,2124.881z"/>
					</g>
				</g>
				<g>
					<g>
						<polygon style="fill:#FFFFFF;" points="1563.103,2010.289 1573.7,2085.025 1600.519,2085.025 1597.911,2011.521 						"/>
						<path d="M1600.519,2087.278h-26.82c-1.122,0-2.073-0.825-2.231-1.936l-10.597-74.734c-0.092-0.66,0.11-1.329,0.557-1.824
							c0.444-0.493,1.104-0.788,1.754-0.744l34.809,1.23c1.182,0.042,2.13,0.99,2.172,2.172l2.607,73.504
							c0.022,0.61-0.205,1.204-0.629,1.644C1601.716,2087.029,1601.131,2087.278,1600.519,2087.278z M1575.655,2082.771h22.529
							l-2.451-69.073l-30.024-1.061L1575.655,2082.771z"/>
					</g>
					<g>
						<g>
							<path style="fill:#FFFFFF;" d="M1574.726,2154.576c10.974,1.181,26.365,3.997,49.86,0.225
								c6.874-1.104,11.206-8.053,9.322-14.785c-4.968-17.746-15.367-50.507-28.533-67.675c-0.954-1.244-2.906-0.904-3.411,0.582
								l-0.468,3.086c-0.281,1.851-2.777,2.217-3.573,0.524l-2.9-6.168c-0.682-1.141-1.863-1.888-3.182-2.012l-10.183-0.392
								c-2.158-0.202-4.11,1.293-4.486,3.438l-0.351,4.865c-0.136,1.89-2.642,2.433-3.542,0.768l-4.389-4.528
								c-0.889-1.214-2.805-0.553-2.764,0.953l0.522,19.421c0.377,14.031-0.636,28.064-3.026,41.893l-1.201,6.954
								C1561.794,2148.139,1568.348,2153.889,1574.726,2154.576z"/>
							<path d="M1601.479,2158.951c-9.116,0-16.507-0.891-22.611-1.626c-1.538-0.185-2.995-0.361-4.383-0.51
								c-7.382-0.794-15.07-7.51-14.304-15.31l1.223-7.116c2.359-13.646,3.364-27.592,2.992-41.452l-0.524-19.418
								c-0.044-1.672,0.986-3.153,2.563-3.692c1.514-0.517,3.16-0.033,4.156,1.197l4.046,4.176l0.286-3.96
								c0.004-0.077,0.013-0.154,0.026-0.229c0.577-3.276,3.611-5.573,6.918-5.294l10.058,0.385c2.15,0.196,3.983,1.355,5.03,3.109
								l2.491,5.274l0.286-1.899c0.022-0.132,0.053-0.264,0.097-0.389c0.504-1.483,1.776-2.559,3.318-2.814
								c1.536-0.253,3.07,0.356,4.013,1.584c13.367,17.433,23.854,50.364,28.915,68.442c1.085,3.868,0.464,8.025-1.701,11.409
								c-2.126,3.325-5.565,5.589-9.433,6.209C1616.045,2158.454,1608.282,2158.951,1601.479,2158.951z M1568.429,2075.266
								l0.473,17.55c0.379,14.157-0.649,28.402-3.058,42.339l-1.201,6.953c-0.486,5.01,5.144,9.668,10.326,10.227
								c1.404,0.152,2.88,0.328,4.438,0.517c10.394,1.25,24.631,2.964,44.823-0.275c2.638-0.425,4.894-1.912,6.35-4.189
								c1.474-2.302,1.895-5.131,1.157-7.765c-4.915-17.561-15.008-49.336-27.704-66.323l-0.308,2.046
								c-0.277,1.822-1.685,3.221-3.503,3.483c-1.802,0.284-3.558-0.676-4.339-2.339l-2.9-6.165
								c-0.207-0.328-0.753-0.674-1.351-0.729l-10.06-0.385c-1.118-0.114-1.954,0.554-2.163,1.488l-0.341,4.726
								c-0.134,1.859-1.443,3.369-3.261,3.758c-1.699,0.376-3.384-0.341-4.321-1.765L1568.429,2075.266z"/>
						</g>
						<path d="M1597.584,2145.056c-13.173,0-21.337-3.045-21.843-3.239c-1.16-0.444-1.738-1.745-1.296-2.906
							c0.444-1.162,1.743-1.743,2.907-1.303c0.176,0.068,17.735,6.548,42.812-0.073c1.19-0.313,2.436,0.398,2.753,1.604
							c0.317,1.201-0.401,2.436-1.604,2.753C1612.335,2144.264,1604.306,2145.056,1597.584,2145.056z"/>
						<path d="M1610.038,2117.73h-24.593c-1.245,0-2.253-1.008-2.253-2.253s1.008-2.253,2.253-2.253h24.593
							c1.245,0,2.253,1.008,2.253,2.253S1611.283,2117.73,1610.038,2117.73z"/>
					</g>
				</g>
				<g>
					<path d="M1389.909,1518.549c0,0-35.167,228.203-36.566,282.699c-1.399,54.496-23.965,219.394-23.965,219.394
						s28.992,10.81,62.094,3.251c0,0,107.688-292.018,115.447-381.543c7.759-89.526-22.066-130.508-22.066-130.508
						L1389.909,1518.549z"/>
					<path d="M1424.307,1504.342c0,0,119.199,365.685,121.15,514.334c0,0,26.268,6.197,64.031,0c0,0,24.213-408.117-45.577-522.453
						L1424.307,1504.342z"/>
					<path d="M1366.861,2028.854c-21.577,0-37.381-5.769-38.27-6.102c-0.988-0.367-1.589-1.371-1.446-2.416
						c0.227-1.648,22.567-165.399,23.944-219.147c0.88-34.218,14.758-135.123,26.243-213.747c0.178-1.23,1.316-2.101,2.555-1.903
						c1.232,0.178,2.084,1.322,1.903,2.555c-9.389,64.267-25.275,177.424-26.195,213.21c-1.305,50.885-21.251,199.46-23.733,217.794
						c6.506,2.059,30.838,8.698,57.919,2.863c5.69-15.515,66.569-182.241,97.371-296.346l-0.112-0.559
						c-0.244-1.193,0.506-2.363,1.69-2.643c1.184-0.264,2.379,0.436,2.693,1.611c36.2,135.096,55.123,233.588,56.256,292.803
						c6.247,1.175,29.088,4.656,59.66-0.09c1.454-26.626,17.237-337.23-27.667-478.448c-0.376-1.186,0.28-2.451,1.465-2.83
						c1.182-0.381,2.451,0.277,2.83,1.466c46.953,147.66,27.966,478.558,27.768,481.885c-0.062,1.05-0.845,1.919-1.883,2.088
						c-37.775,6.203-63.825,0.229-64.914-0.029c-1.008-0.238-1.723-1.131-1.736-2.165c-0.753-57.332-18.822-153.011-53.724-284.49
						c-32.842,119.126-95.253,288.722-95.893,290.458c-0.264,0.715-0.871,1.248-1.613,1.417
						C1383.141,2028.106,1374.626,2028.854,1366.861,2028.854z M1609.488,2018.675h0.022H1609.488z"/>
					<path style="fill:#FFFFFF;" d="M1489.466,1727.941c-1.008,0-1.927-0.682-2.183-1.705l-16.747-66.769
						c-0.304-1.206,0.429-2.431,1.637-2.733c1.19-0.297,2.431,0.429,2.733,1.637l16.747,66.769c0.304,1.206-0.429,2.431-1.637,2.733
						C1489.833,1727.919,1489.649,1727.941,1489.466,1727.941z"/>
				</g>
			</g>
			<g>
				<path d="M1458.212,1191.223c7.508,43.316,51.287,89.817,95.324,83.678c7.189-1.003,26.579-5.109,46.957-28.821
					c28.092,20.194,63.891,14.847,83.197-8.588c23.591-28.638,20.372-81.636-13.989-108.839
					c27.223-0.228,34.54-10.747,36.703-14.891c12.747-24.425-20.914-81.562-52.328-81.652c-11.595-0.033-26.98,14.363-57.276,43.157
					c-31.29,29.738-32.622,35.503-42.093,36.534c-27.839,3.03-36.164-44.635-73.097-49.907
					c-25.284-3.61-53.521,14.141-55.657,30.901c-1.834,14.385,16.651,19.459,27.057,48.19
					C1460.758,1162.38,1454.762,1171.315,1458.212,1191.223z"/>
				<path d="M1494.836,1045.773c-2.153,6.628-0.008,25.403,9.91,28.655c9.917,3.251,23.852-10.251,26.005-16.879
					c2.153-6.628-4.141-14.638-14.059-17.89C1506.774,1036.408,1496.989,1039.145,1494.836,1045.773z"/>
			</g>
			<g>
				<g>
					<path style="fill:#FFFFFF;" d="M1375.14,1521.365c0,0-11.044,74.082,2.462,88.283c0,0,44.143-48.581,46.238-83.67
						L1375.14,1521.365z"/>
					<path d="M1377.603,1611.901c-0.616,0-1.208-0.253-1.633-0.7c-13.866-14.577-4.205-82.473-3.058-90.168
						c0.178-1.184,1.23-2.059,2.442-1.91l48.7,4.612c1.208,0.115,2.108,1.164,2.035,2.376
						c-2.119,35.474-44.995,83.043-46.819,85.052c-0.42,0.462-1.016,0.73-1.641,0.737
						C1377.621,1611.901,1377.612,1611.901,1377.603,1611.901z M1377.064,1523.811c-2.907,20.615-7.428,68.237,0.687,82.257
						c8.08-9.343,40.453-48.414,43.659-78.057L1377.064,1523.811z"/>
				</g>
				<g>
					<path style="fill:#FFFFFF;" d="M1436.377,1522.119c0,0,13.75,59.77,30.063,74.675c16.313,14.906,61.316-48.24,85.666-53.171
						c29.714-6.017,55.488,53.159,55.488,53.159s-10.311-69.547-30.727-85.451L1436.377,1522.119z"/>
					<path d="M1472.433,1601.351c-2.799,0-5.323-0.891-7.514-2.893c-16.639-15.204-30.171-73.366-30.739-75.832
						c-0.147-0.64-0.009-1.311,0.381-1.842c0.389-0.528,0.988-0.86,1.644-0.911l140.491-10.788c0.561-0.037,1.113,0.125,1.556,0.469
						c20.888,16.271,31.144,84.024,31.57,86.9c0.165,1.118-0.521,2.185-1.609,2.495c-1.091,0.315-2.235-0.231-2.687-1.265
						c-0.249-0.576-25.44-57.426-52.975-51.851c-9.899,2.005-24.195,14.918-38.02,27.407
						C1498.622,1587.612,1483.413,1601.351,1472.433,1601.351z M1439.186,1524.163c2.827,11.495,15.039,58.419,28.774,70.968
						c7.761,7.1,26.778-10.08,43.551-25.236c14.932-13.488,29.038-26.23,40.147-28.481c21.867-4.423,41.1,23.011,50.984,40.598
						c-4.183-20.811-13.132-57.015-26.499-68.367L1439.186,1524.163z"/>
				</g>
				<g>
					<path style="fill:#FFFFFF;" d="M1215.681,1165.058l-22.693-23.77c-3.852-4.035-10.347,0.505-7.921,5.536l6.985,14.488
						c0,0-4.77,2.224-7.131,2.376c-5.175,0.333-10.184-1.9-13.769-5.664c-4.144-4.352-10.847-11.28-13.117-12.984
						c-3.37-2.53-7.715-6.447-12.531-6.839l-0.145-0.011c-5.03-0.37-8.314,5.197-5.575,9.452l9.486,14.739
						c6.884,10.695,16.989,18.9,28.842,23.417l19.466,7.419c6.779,2.584,11.331,9.029,11.52,16.311l1.965,75.84l39.839-30.59
						l-17.891-58.117C1229.435,1185.053,1223.539,1174.298,1215.681,1165.058z"/>
					<path d="M1211.062,1287.622c-0.33,0-0.661-0.073-0.97-0.22c-0.765-0.365-1.26-1.127-1.282-1.974l-1.965-75.839
						c-0.166-6.399-4.118-11.996-10.07-14.265l-19.466-7.42c-12.389-4.722-22.74-13.125-29.934-24.305l-9.486-14.738
						c-1.737-2.698-1.797-6.088-0.157-8.847c1.631-2.744,4.614-4.311,7.792-4.071c4.976,0.403,9.108,3.613,12.429,6.192
						c0.496,0.385,0.975,0.757,1.435,1.102c2.313,1.738,8.562,8.154,13.396,13.233c3.274,3.439,7.656,5.254,11.992,4.968
						c0.899-0.057,2.632-0.638,4.225-1.27l-5.963-12.366c-1.568-3.254-0.592-6.96,2.373-9.013c2.946-2.04,6.732-1.655,9.208,0.942
						l22.693,23.77c0.03,0.031,0.059,0.064,0.087,0.097c8.103,9.527,14.08,20.428,17.764,32.4l17.892,58.118
						c0.277,0.9-0.034,1.877-0.781,2.449l-39.839,30.589C1212.033,1287.464,1211.549,1287.622,1211.062,1287.622z
						 M1144.972,1140.435c-1.454,0-2.658,0.689-3.367,1.881c-0.772,1.3-0.746,2.836,0.073,4.108l9.486,14.738
						c6.67,10.364,16.266,18.155,27.75,22.531l19.466,7.42c7.667,2.922,12.758,10.128,12.97,18.36l1.85,71.414l35.088-26.941
						l-17.431-56.621c-3.497-11.362-9.167-21.711-16.849-30.756l-22.648-23.724c-1.142-1.193-2.496-0.966-3.384-0.348
						c-0.904,0.625-1.609,1.833-0.879,3.349l6.985,14.487c0.262,0.543,0.295,1.168,0.092,1.736c-0.202,0.568-0.624,1.03-1.17,1.285
						c-0.861,0.401-5.288,2.412-7.94,2.583c-5.666,0.359-11.346-1.952-15.544-6.359c-6.571-6.9-11.251-11.543-12.839-12.736
						c-0.477-0.361-0.976-0.746-1.492-1.149c-2.997-2.326-6.392-4.964-9.869-5.246
						C1145.203,1140.44,1145.086,1140.435,1144.972,1140.435z"/>
				</g>
				<g>
					<polygon style="fill:#FFFFFF;" points="1259,1236.223 1159.624,1315.341 1203.919,1361.482 1288.217,1290.932 					"/>
					<path d="M1203.92,1363.736c-0.594,0-1.186-0.233-1.626-0.693l-44.295-46.141c-0.439-0.458-0.666-1.078-0.623-1.71
						c0.042-0.634,0.349-1.219,0.844-1.613l99.376-79.12c0.523-0.418,1.199-0.581,1.86-0.444c0.655,0.136,1.216,0.554,1.531,1.146
						l29.216,54.709c0.504,0.939,0.277,2.104-0.541,2.788l-84.298,70.552C1204.944,1363.563,1204.431,1363.736,1203.92,1363.736z
						 M1162.961,1315.564l41.125,42.841l81.281-68.026l-27.081-50.709L1162.961,1315.564z"/>
				</g>
				<g>
					<path style="fill:#FFFFFF;" d="M1169.998,1350.729l114.123-88.463c0,0,12.489,19.086,32.953,21.147
						c17.399,1.752,47.072-34.414,70.494-50.078c30.167-19.94,65.906-27.185,100.678-24.22c0,0,0.167,0.009,0.485,0.045
						c6.246,0.551,12.824,1.484,19.745,2.891c48.031,8.079,166.63,34.791,189.106,104.077
						c15.162,46.744-2.564,109.413-5.517,119.204c-0.21,0.698-0.987,1.027-1.64,0.71l-105.419-51.14l8.137-24.592
						c4.877-11.829,0.032-25.448-11.204-31.491l-16.347-8.792c-3.764,20.686-6.859,42.447-3.354,60.895
						c12.958,68.231,27.824,90.551,35.24,146.502c0,0-25.686-6.063-44.337-4.85l-175.754,6.753
						c-11.73,0.451-21.902-8.218-23.215-19.938c-1.838-16.399-1.878-45.435,4.868-96.384c0.876-6.615,1.429-17.119,2.07-29.963
						C1325.195,1404.761,1259.621,1421.621,1169.998,1350.729z"/>
					<path d="M1376.521,1531.598c-12.487,0-23.192-9.475-24.589-21.957c-2.422-21.601-0.783-54.214,4.874-96.929
						c0.757-5.723,1.267-14.3,1.844-25.619c-39.797,22.487-104.124,33.368-190.05-34.596c-0.542-0.429-0.858-1.085-0.855-1.778
						c0.003-0.693,0.326-1.344,0.872-1.769l114.123-88.464c0.495-0.385,1.131-0.539,1.749-0.442c0.62,0.103,1.168,0.462,1.514,0.986
						c0.121,0.183,12.181,18.217,31.298,20.142c10.157,1.054,26.466-13.526,42.185-27.606c9.024-8.08,18.353-16.434,26.831-22.102
						c29.139-19.262,64.366-27.762,101.9-24.611c0.117-0.007,0.191,0.002,0.284,0.015l0.48,0.053
						c6.509,0.572,13.235,1.558,19.944,2.924c49.734,8.364,168.042,35.426,190.802,105.59c15.224,46.933-1.914,108.653-5.505,120.55
						c-0.286,0.957-0.977,1.738-1.892,2.141c-0.922,0.407-1.974,0.383-2.887-0.057l-105.42-51.138
						c-1.016-0.493-1.509-1.661-1.155-2.735l8.137-24.593c4.513-10.96,0.134-23.277-10.133-28.798l-13.611-7.32
						c-3.485,19.682-6.042,40.002-2.808,57.02c6.086,32.05,12.714,54.333,18.562,73.993c6.843,23.009,12.753,42.88,16.696,72.633
						c0.097,0.735-0.172,1.47-0.722,1.967c-0.548,0.497-1.305,0.689-2.029,0.524c-0.253-0.059-25.581-5.985-43.675-4.797
						l-175.813,6.755C1377.154,1531.591,1376.837,1531.598,1376.521,1531.598z M1361.109,1380.791c0.401,0,0.799,0.106,1.155,0.319
						c0.715,0.427,1.138,1.215,1.096,2.046c-0.673,13.504-1.217,23.57-2.088,30.145c-6.986,52.757-6.5,81.236-4.861,95.838
						c1.171,10.465,10.32,18.274,20.888,17.937l175.754-6.753c15.024-0.981,34.235,2.623,41.754,4.207
						c-3.892-27.658-9.574-46.759-16.113-68.75c-5.879-19.763-12.54-42.163-18.67-74.437c-3.538-18.622-0.482-40.669,3.351-61.717
						c0.128-0.711,0.59-1.316,1.239-1.628c0.647-0.31,1.408-0.295,2.044,0.046l16.346,8.79
						c12.309,6.621,17.561,21.381,12.221,34.334l-7.461,22.569l102.505,49.723c3.318-11.382,19.647-72.008,5.171-116.635
						c-22.001-67.819-138.339-94.309-187.339-102.551c-6.619-1.347-13.176-2.306-19.568-2.869l-0.319-0.035
						c-0.053,0-0.106-0.004-0.159-0.009c-36.598-3.111-70.915,5.127-99.244,23.854c-8.203,5.488-17.413,13.732-26.318,21.708
						c-17.204,15.405-33.414,29.955-45.646,28.732c-17.508-1.765-29.269-15.059-33.19-20.181l-109.996,85.267
						c85.41,66.463,148.381,53.294,186.282,30.376C1360.302,1380.899,1360.705,1380.791,1361.109,1380.791z"/>
				</g>
				<g>
					<path style="fill:#FFFFFF;" d="M1592.615,1416.079l-31.654,49.502l-14.179-9.659c-8.673-5.908-19.303-8.175-29.617-6.314
						c0,0-15.249,2.034-21.756,7.31c-15.698,12.728-1.782,20.648,1.224,22.246c4.84,2.573,11.556,4.967,18.718,3.938
						c4.184-0.601,15.199,0.832,25.149,6.262c7.527,4.107,16.324,12.496,28.274,9.241c10.211-2.781,14.703-8.833,14.703-8.833
						l40.894-51.232L1592.615,1416.079z"/>
					<path d="M1563.389,1501.592c-7.714,0-14.054-4.051-19.354-7.439c-1.624-1.038-3.157-2.018-4.614-2.812
						c-9.662-5.272-20.232-6.515-23.748-6.007c-7.959,1.131-15.321-1.644-20.096-4.181c-5.827-3.094-9.274-7.272-9.71-11.763
						c-0.453-4.698,2.28-9.483,8.124-14.221c6.922-5.613,22.23-7.71,22.879-7.796c10.85-1.965,21.968,0.409,31.181,6.687
						l12.262,8.353l30.404-47.549c0.332-0.517,0.863-0.878,1.466-0.997c0.607-0.119,1.23,0.015,1.734,0.372l31.755,22.461
						c0.506,0.359,0.843,0.909,0.931,1.523c0.086,0.614-0.084,1.237-0.471,1.723l-40.893,51.233
						c-0.154,0.209-5.034,6.647-15.871,9.6C1567.288,1501.345,1565.296,1501.592,1563.389,1501.592z M1517.509,1480.72
						c5.604,0,15.229,1.842,24.07,6.665c1.595,0.869,3.19,1.89,4.883,2.97c6.165,3.943,13.156,8.41,21.722,6.075
						c9.246-2.519,13.451-7.957,13.493-8.009l39.445-49.422l-27.878-19.717l-30.382,47.514c-0.328,0.513-0.852,0.871-1.448,0.992
						c-0.601,0.121-1.217-0.002-1.721-0.345l-14.179-9.659c-8.234-5.609-18.164-7.732-27.946-5.959
						c-0.249,0.035-14.802,2.031-20.738,6.843c-4.596,3.727-6.777,7.188-6.476,10.286c0.383,3.965,4.761,6.852,7.338,8.22
						c4.181,2.22,10.57,4.678,17.341,3.697C1515.725,1480.772,1516.559,1480.72,1517.509,1480.72z"/>
				</g>
				<g>
					<path style="fill:#FFFFFF;" d="M1593.104,1389.19l-13.039,24.18l77.064,61.751c0,0,14.029-27.105,18.346-46.156
						L1593.104,1389.19z"/>
					<path d="M1657.13,1477.373c-0.508,0-1.006-0.172-1.408-0.495l-77.065-61.75c-0.849-0.68-1.091-1.87-0.574-2.827l13.039-24.179
						c0.57-1.058,1.875-1.485,2.962-0.959l82.372,39.775c0.946,0.456,1.45,1.503,1.219,2.526
						c-4.332,19.112-17.966,45.576-18.544,46.693c-0.31,0.599-0.874,1.027-1.534,1.168
						C1657.442,1477.357,1657.286,1477.373,1657.13,1477.373z M1582.938,1412.786l73.43,58.835
						c3.373-6.808,12.718-26.362,16.494-41.415l-78.796-38.05L1582.938,1412.786z"/>
				</g>
				<path d="M1360.973,1387.152c-0.051,0-0.103-0.002-0.154-0.004c-1.243-0.086-2.18-1.16-2.097-2.401
					c0.343-5.057,0.728-10.584,1.129-16.316c1.098-15.741,2.343-33.579,3.058-46.907c0.068-1.243,1.129-2.209,2.372-2.13
					c1.243,0.068,2.196,1.129,2.13,2.372c-0.72,13.363-1.965,31.22-3.065,46.977c-0.398,5.73-0.786,11.255-1.126,16.307
					C1363.138,1386.241,1362.148,1387.152,1360.973,1387.152z"/>
			</g>
			<g>
				<g>
					<path style="fill:#FFFFFF;" d="M1437.286,1161.846l6.825,56.989l-31.562,14.1c0,0,46.704,31.892,108.205-3.459l-33.197-14.247
						l-17.118-66.133L1437.286,1161.846z"/>
					<path d="M1462.255,1248.274c-30.697,0.002-50.669-13.268-50.975-13.477c-0.676-0.462-1.047-1.25-0.975-2.064
						c0.073-0.812,0.581-1.523,1.325-1.855l30.048-13.422l-6.63-55.341c-0.121-1.026,0.467-2,1.428-2.372l33.155-12.751
						c0.603-0.227,1.272-0.194,1.839,0.099c0.572,0.295,0.99,0.818,1.151,1.439l16.839,65.064l32.184,13.811
						c0.783,0.337,1.311,1.087,1.36,1.939c0.051,0.854-0.385,1.659-1.127,2.086
						C1499.717,1244.168,1479.325,1248.272,1462.255,1248.274z M1417.495,1233.193c11.715,6.17,50.181,22.078,98.144-3.459
						l-28.972-12.434c-0.64-0.275-1.118-0.832-1.292-1.505l-16.485-63.689l-29.159,11.215l6.616,55.246
						c0.117,0.981-0.418,1.923-1.318,2.326L1417.495,1233.193z"/>
				</g>
				<g>
					<path style="fill:#FFFFFF;" d="M1471.202,1165.059c0,0,12.67,4.803,16.011-6.257c3.341-11.06-7.581-10.364-7.581-10.364
						s11.629-24.241-6.453-26.601c-18.081-2.36-31.285-9.079-31.285-9.079s-13.143,23.124-17.365,42.507
						c-2.546,11.69-1.847,22.019,6.938,25.095C1455.513,1188.781,1471.202,1165.059,1471.202,1165.059z"/>
					<path d="M1441.67,1184.411c-3.432,0-7.092-0.572-10.949-1.925c-8.896-3.113-11.721-12.434-8.397-27.7
						c4.247-19.495,17.066-42.185,17.609-43.142c0.594-1.047,1.906-1.441,2.979-0.896c0.13,0.066,13.107,6.577,30.556,8.854
						c4.931,0.642,8.423,2.801,10.381,6.414c3.487,6.432,0.81,15.748-0.959,20.454c1.813,0.387,3.965,1.252,5.481,3.164
						c1.903,2.403,2.24,5.706,0.997,9.818c-1.082,3.584-3.124,6.137-6.071,7.587c-4.071,2.007-8.779,1.265-11.228,0.634
						C1468.787,1171.898,1457.702,1184.411,1441.67,1184.411z M1442.848,1115.697c-3.127,5.798-12.694,24.325-16.117,40.048
						c-2.764,12.681-0.92,20.248,5.479,22.49c22.085,7.723,36.51-13.514,37.115-14.421c0.579-0.871,1.692-1.241,2.669-0.862
						c0.055,0.02,5.408,1.978,9.332,0.037c1.795-0.889,3.017-2.473,3.732-4.839c0.79-2.616,0.717-4.539-0.216-5.714
						c-1.496-1.89-5.036-1.749-5.067-1.749c-0.792,0.037-1.562-0.326-2.009-0.988c-0.449-0.662-0.51-1.512-0.167-2.233
						c1.663-3.481,5.316-13.732,2.291-19.306c-1.25-2.299-3.54-3.637-7.001-4.09
						C1458.492,1122.192,1447.237,1117.666,1442.848,1115.697z"/>
				</g>
			</g>
		</g>
		<g>
			<g>
				<path d="M405.279,1962.446c-2.626,0-5.339-0.528-8.039-1.771c-7.242-3.331-12.199-11.061-12.055-18.793
					c0.231-12.364,12.801-19.321,19.414-21.273c4.397-1.3,9.056-1.391,13.708-0.414c-3.033-3.474-6.372-5.58-7.942-6.57
					c-2.456-1.547-15.413-8.962-29.346-2.964c-7.163,3.087-11.521,8.364-13.916,12.247c-0.654,1.061-2.041,1.388-3.1,0.737
					c-1.06-0.654-1.388-2.042-0.735-3.1c2.735-4.436,7.725-10.469,15.968-14.021c16.013-6.905,30.742,1.529,33.533,3.29
					c2.457,1.549,8.707,5.49,12.688,12.735c7.58,3.404,14.766,9.578,20.356,17.939c0.691,1.034,0.413,2.434-0.622,3.125
					c-1.036,0.691-2.435,0.411-3.126-0.621c-4-5.985-8.861-10.735-14.04-13.985c0.142,0.541,0.268,1.098,0.381,1.666
					c0.72,3.637,2.364,16.181-6.674,24.791C417.886,1959.13,411.86,1962.446,405.279,1962.446z M412.175,1924.037
					c-2.149,0-4.259,0.29-6.3,0.893c-6.413,1.892-16.015,7.99-16.184,17.035c-0.112,5.998,3.766,12.009,9.432,14.617
					c7.941,3.653,15.991-1.036,19.5-4.379c7.376-7.028,5.969-17.587,5.362-20.657c-0.399-2.024-1.035-3.859-1.822-5.519
					C418.837,1924.721,415.464,1924.037,412.175,1924.037z"/>
				<path d="M829.909,1796.909l25.931-73.984c2.773-7.91,13.577-8.769,17.534-1.385c11.914,22.234,25.89,64.354,0.14,114.253
					L829.909,1796.909z"/>
				<path d="M550.737,2044.148l-2.149-0.388c-20.536-3.704-40.172,10.019-43.859,30.651l-8.137,45.534
					c-3.687,20.632,9.972,40.36,30.508,44.064l2.149,0.387c20.536,3.704,40.172-10.019,43.859-30.65l8.137-45.534
					C584.932,2067.58,571.273,2047.852,550.737,2044.148z"/>
				<path d="M806.057,2044.148l2.149-0.388c20.536-3.704,40.172,10.019,43.859,30.651l8.137,45.534
					c3.687,20.632-9.972,40.36-30.508,44.064l-2.149,0.387c-20.536,3.704-40.172-10.019-43.859-30.65l-8.137-45.534
					C771.862,2067.58,785.521,2047.852,806.057,2044.148z"/>
				<g>
					<path style="fill:#FFFFFF;" d="M828.339,1789.53l-5.811-63.685c-0.559-6.13-7.055-9.872-12.556-7.161
						c-11.238,5.539-27.513,18.674-33.822,49.236c-14.277-3.494-29.189-5.36-44.537-5.36H624.627
						c-103.574,0-187.537,84.355-187.537,188.412c0,104.057,83.963,188.412,187.537,188.412h106.985
						c103.574,0,187.537-84.355,187.537-188.411C919.149,1882.469,882.757,1822.509,828.339,1789.53z"/>
					<path d="M731.613,2141.637H624.627c-104.65,0-189.79-85.531-189.79-190.663c0-105.134,85.14-190.666,189.79-190.666h106.986
						c14.427,0,28.821,1.644,42.823,4.889c6.68-29.269,22.383-42.541,34.539-48.533c3.219-1.591,7.017-1.485,10.163,0.282
						c3.195,1.791,5.301,5.041,5.634,8.693l5.708,62.558c56.953,34.97,90.922,95.734,90.922,162.774
						C921.402,2056.105,836.263,2141.637,731.613,2141.637z M624.627,1764.814c-102.166,0-185.284,83.509-185.284,186.157
						s83.118,186.16,185.284,186.16h106.986c102.165,0,185.283-83.51,185.283-186.157c0-65.836-33.542-125.468-89.724-159.516
						c-0.612-0.372-1.011-1.01-1.077-1.723l-5.811-63.686c-0.2-2.207-1.421-4.093-3.349-5.173c-1.877-1.05-4.05-1.113-5.967-0.169
						c-11.564,5.701-26.609,18.599-32.61,47.67c-0.124,0.599-0.486,1.122-1.003,1.45c-0.517,0.326-1.145,0.422-1.739,0.284
						c-14.357-3.514-29.161-5.296-44.001-5.296H624.627z"/>
				</g>
				<g>
					<path style="fill:#FFFFFF;" d="M733.131,2086.131H623.109c-88.66,0-163.336-60.109-185.883-141.974
						c-0.08,2.263-0.135,4.532-0.135,6.815c0,104.056,83.964,188.412,187.537,188.412h106.985
						c103.574,0,187.537-84.355,187.537-188.412c0-2.294-0.044-4.579-0.125-6.853
						C896.49,2026.003,821.805,2086.131,733.131,2086.131z"/>
					<path d="M731.613,2141.637H624.627c-104.65,0-189.79-85.531-189.79-190.663c0-2.31,0.055-4.605,0.136-6.896
						c0.04-1.113,0.885-2.029,1.99-2.158c1.088-0.128,2.138,0.568,2.434,1.639c22.756,82.618,98.3,140.32,183.712,140.32h110.022
						c85.429,0,160.978-57.717,183.72-140.357c0.296-1.074,1.345-1.758,2.435-1.639c1.106,0.13,1.951,1.045,1.99,2.159
						c0.081,2.302,0.125,4.612,0.125,6.931C921.402,2056.105,836.263,2141.637,731.613,2141.637z M439.506,1958.826
						c4.111,99.019,85.574,178.304,185.121,178.304h106.986c99.547,0,181.009-79.285,185.12-178.302
						c-27.6,76.977-101.099,129.556-183.602,129.556H623.109C540.613,2088.384,467.108,2035.801,439.506,1958.826z"/>
				</g>
				<path d="M731.613,2141.637H624.627c-104.65,0-189.79-85.531-189.79-190.663c0-105.134,85.14-190.666,189.79-190.666h106.986
					c14.427,0,28.821,1.644,42.823,4.889c6.68-29.269,22.383-42.541,34.539-48.533c3.219-1.591,7.017-1.485,10.163,0.282
					c3.195,1.791,5.301,5.041,5.634,8.693l5.708,62.558c56.953,34.97,90.922,95.734,90.922,162.774
					C921.402,2056.105,836.263,2141.637,731.613,2141.637z M624.627,1764.814c-102.166,0-185.284,83.509-185.284,186.157
					s83.118,186.16,185.284,186.16h106.986c102.165,0,185.283-83.51,185.283-186.157c0-65.836-33.542-125.468-89.724-159.516
					c-0.612-0.372-1.011-1.01-1.077-1.723l-5.811-63.686c-0.2-2.207-1.421-4.093-3.349-5.173c-1.877-1.05-4.05-1.113-5.967-0.169
					c-11.564,5.701-26.609,18.599-32.61,47.67c-0.124,0.599-0.486,1.122-1.003,1.45c-0.517,0.326-1.145,0.422-1.739,0.284
					c-14.357-3.514-29.161-5.296-44.001-5.296H624.627z"/>
				<path d="M747.697,1778.411H597.002c-3.687,0-6.676,3.003-6.676,6.707c0,3.705,2.989,6.707,6.676,6.707h150.694
					c3.687,0,6.676-3.003,6.676-6.707C754.373,1781.413,751.384,1778.411,747.697,1778.411z"/>
				<g>
					<path d="M927.289,1983.081c0-17.565-3.167-33.581-8.37-45.719v-22.908h-24.526c-18.168,0-32.896,30.725-32.896,68.627
						c0,37.902,14.728,68.627,32.896,68.627h24.526v-22.908C924.122,2016.662,927.289,2000.646,927.289,1983.081z"/>
					<g>
						<ellipse style="fill:#FFFFFF;" cx="918.92" cy="1983.081" rx="32.896" ry="68.627"/>
						<path d="M918.92,2053.962c-19.71,0-35.149-31.135-35.149-70.882c0-39.745,15.44-70.88,35.149-70.88
							c19.709,0,35.149,31.135,35.149,70.88C954.069,2022.827,938.629,2053.962,918.92,2053.962z M918.92,1916.707
							c-16.61,0-30.643,30.396-30.643,66.373c0,35.98,14.033,66.375,30.643,66.375s30.643-30.395,30.643-66.375
							C949.563,1947.103,935.53,1916.707,918.92,1916.707z"/>
					</g>
					<ellipse cx="908.995" cy="1982.893" rx="5.428" ry="13.33"/>
					<ellipse cx="935.934" cy="1982.893" rx="5.428" ry="13.33"/>
				</g>
				<g>
					<path d="M843.404,1911.579c0,7.082-5.715,12.823-12.764,12.823c-7.049,0-12.764-5.741-12.764-12.823
						c0-7.082,5.715-12.824,12.764-12.824C837.689,1898.756,843.404,1904.497,843.404,1911.579z"/>
					<path style="fill:#FFFFFF;" d="M830.64,1907.889c0,2.14-1.727,3.875-3.857,3.875s-3.857-1.735-3.857-3.875
						c0-2.14,1.727-3.875,3.857-3.875S830.64,1905.749,830.64,1907.889z"/>
				</g>
				<path d="M800.827,1740.15c0,0,7.377,35.365,11.902,58.233c4.421,22.344-28.807,20.878-30.794-12.723
					C780.642,1763.809,800.827,1740.15,800.827,1740.15z"/>
			</g>
			<g>
				<path d="M691.794,1736.577c-1.142,0-2.12-0.863-2.239-2.024l-17.078-166.486c-0.128-1.237,0.773-2.343,2.011-2.471
					c1.253-0.114,2.343,0.775,2.471,2.013l17.078,166.486c0.128,1.237-0.773,2.344-2.011,2.471
					C691.948,1736.573,691.869,1736.577,691.794,1736.577z"/>
				<path d="M719.371,1740.797c-0.197,0-0.398-0.026-0.597-0.081c-1.2-0.328-1.905-1.569-1.576-2.768l32.442-118.134
					c0.329-1.201,1.569-1.912,2.769-1.575c1.2,0.328,1.906,1.569,1.577,2.768l-32.442,118.134
					C721.268,1740.141,720.36,1740.797,719.371,1740.797z"/>
			</g>
			<g>
				<g>
					<g>
						<ellipse style="fill:#FFFFFF;" cx="557.17" cy="1069.373" rx="124.357" ry="124.937"/>
						<path d="M556.923,1196.583c-27.86,0-54.788-9.189-77.181-26.578c-26.843-20.842-43.957-50.942-48.192-84.757
							c-8.714-69.581,40.548-133.314,109.813-142.071c33.453-4.22,66.562,4.852,93.236,25.563
							c26.842,20.842,43.956,50.942,48.191,84.757c8.713,69.581-40.55,133.314-109.814,142.071
							C567.608,1196.247,562.248,1196.583,556.923,1196.583z M557.407,946.669c-5.137,0-10.301,0.326-15.478,0.979
							c-66.803,8.445-114.313,69.92-105.908,137.041c4.085,32.618,20.593,61.653,46.484,81.758
							c25.721,19.972,57.647,28.721,89.905,24.65c66.803-8.445,114.313-69.92,105.909-137.042
							c-4.085-32.618-20.593-61.653-46.484-81.758C610.242,955.532,584.27,946.669,557.407,946.669z"/>
					</g>
					<ellipse cx="557.17" cy="1069.373" rx="112.375" ry="112.899"/>
					<ellipse style="fill:#FFFFFF;" cx="557.17" cy="1069.373" rx="99.4" ry="99.864"/>
					<path d="M556.964,1174.668c-23.06,0-45.349-7.607-63.885-21.999c-22.218-17.253-36.384-42.167-39.889-70.156
						c-7.213-57.594,33.563-110.347,90.896-117.595c34.598-4.376,68.989,8.771,91.993,35.157c0.817,0.937,0.719,2.361-0.218,3.179
						c-0.939,0.819-2.363,0.717-3.18-0.218c-22.013-25.253-54.924-37.837-88.03-33.647c-54.871,6.935-93.894,57.431-86.99,112.565
						c3.355,26.793,16.915,50.643,38.181,67.156c21.127,16.403,47.36,23.588,73.845,20.245
						c54.871-6.935,93.894-57.431,86.99-112.565c-0.155-1.234,0.721-2.361,1.956-2.515c1.218-0.143,2.36,0.722,2.515,1.956
						c7.213,57.594-33.563,110.347-90.896,117.595C565.81,1174.389,561.372,1174.666,556.964,1174.668z"/>
					<path d="M556.532,1139.29l-2.007-16.025c-11.313,0.916-22.607-0.741-29.452-3.646l2.565-20.373
						c7.538,2.988,17.888,5.279,28.802,3.899c9.57-1.21,15.654-5.749,14.809-12.496c-0.803-6.41-6.683-9.779-19.635-12.426
						c-18.727-3.802-32.04-10.687-34.089-27.049c-1.859-14.844,7.094-27.8,24.616-33.613l-2.007-16.025l16.454-2.08l1.859,14.844
						c11.313-0.916,19.165,0.49,25.044,2.489l-2.482,19.677c-4.598-1.304-12.808-4.207-24.896-2.679
						c-10.913,1.379-13.848,6.548-13.257,11.272c0.697,5.567,7.017,8.366,21.965,11.96c20.868,4.559,30.089,12.818,31.99,28
						c1.88,15.013-7.092,29.17-25.978,34.985l2.155,17.206L556.532,1139.29z"/>
				</g>
				<g>
					
						<ellipse transform="matrix(0.9072 -0.4207 0.4207 0.9072 -589.1052 372.4272)" style="fill:#FFFFFF;" cx="549.519" cy="1521.365" rx="67.247" ry="69.61"/>
					<path d="M551.494,1595.016c-3.215,0.002-6.455-0.218-9.705-0.66c-39.47-5.378-68.148-42.471-63.929-82.686
						c0.13-1.237,1.222-2.161,2.477-2.005c1.238,0.13,2.135,1.237,2.006,2.475c-3.968,37.819,22.973,72.697,60.055,77.749
						c17.731,2.427,35.182-2.284,49.142-13.237c14.28-11.208,23.215-27.566,25.155-46.062c3.969-37.817-22.971-72.695-60.055-77.749
						c-22.327-3.05-44.314,5.393-58.809,22.569c-0.804,0.953-2.222,1.072-3.175,0.271c-0.951-0.803-1.072-2.225-0.268-3.175
						c15.497-18.362,38.99-27.383,62.863-24.131c39.47,5.382,68.148,42.473,63.927,82.687
						c-2.069,19.719-11.607,37.168-26.855,49.136C581.955,1589.9,567.026,1595.016,551.494,1595.016z"/>
					<path d="M548.156,1562.942l-0.999-9.516c-6.615,0.597-13.192-0.335-17.157-2.03l1.718-12.121
						c4.369,1.741,10.388,3.054,16.775,2.184c5.601-0.763,9.203-3.489,8.782-7.496c-0.399-3.806-3.797-5.781-11.331-7.294
						c-10.893-2.173-18.592-6.203-19.612-15.919c-0.925-8.814,4.442-16.556,14.736-20.093l-0.999-9.516l9.63-1.313l0.925,8.814
						c6.616-0.597,11.185,0.203,14.596,1.363l-1.662,11.707c-2.67-0.754-7.433-2.441-14.508-1.477
						c-6.387,0.87-8.156,3.956-7.862,6.761c0.347,3.305,4.007,4.94,12.696,7.007c12.135,2.613,17.43,7.479,18.376,16.494
						c0.935,8.914-4.456,17.371-15.547,20.914l1.072,10.217L548.156,1562.942z"/>
				</g>
				<g>
					<g>
						<ellipse style="fill:#FFFFFF;" cx="678.12" cy="1329.098" rx="87.018" ry="87.424"/>
						<path d="M678.089,1418.776c-23.36,0-45.394-8.977-62.181-25.363c-17.1-16.692-26.707-39.076-27.05-63.024
							c-0.708-49.444,38.758-90.247,87.977-90.96c23.899-0.381,46.396,8.661,63.498,25.354c17.1,16.692,26.707,39.076,27.05,63.024
							c0.707,49.444-38.759,90.247-87.977,90.96C678.967,1418.774,678.526,1418.776,678.089,1418.776z M678.15,1243.926
							c-0.417,0-0.833,0.002-1.25,0.009c-46.736,0.676-84.21,39.43-83.537,86.387c0.326,22.751,9.449,44.011,25.691,59.865
							c16.237,15.851,37.666,24.472,60.285,24.074c46.735-0.676,84.209-39.43,83.537-86.387
							c-0.326-22.751-9.449-44.011-25.691-59.865C721.247,1252.45,700.324,1243.926,678.15,1243.926z"/>
					</g>
					<ellipse style="fill:#FFFFFF;" cx="677.86" cy="1329.922" rx="73.026" ry="73.367"/>
					<path d="M740.076,1370.201c-0.406,0-0.818-0.11-1.188-0.341c-1.057-0.658-1.38-2.046-0.723-3.103
						c3.59-5.767,6.328-12,8.139-18.533c0.333-1.197,1.574-1.897,2.774-1.569c1.199,0.332,1.902,1.575,1.57,2.775
						c-1.927,6.946-4.84,13.576-8.656,19.708C741.564,1369.825,740.828,1370.201,740.076,1370.201z"/>
					<path d="M743.388,1298.402c-0.826,0-1.622-0.455-2.017-1.243c-12.304-24.554-36.916-39.527-64.27-39.168
						c-22.459,0.326-43.651,11.514-56.69,29.929c-0.72,1.016-2.124,1.256-3.14,0.537c-1.017-0.719-1.256-2.126-0.537-3.142
						c13.865-19.583,36.408-31.482,60.3-31.83c0.353-0.004,0.711-0.007,1.064-0.007c28.244,0,54.573,16.261,67.301,41.661
						c0.558,1.113,0.108,2.467-1.006,3.025C744.071,1298.325,743.727,1298.402,743.388,1298.402z"/>
					<path d="M678.091,1404.718c-19.696,0-38.277-7.571-52.433-21.389c-14.42-14.073-22.52-32.948-22.81-53.143
						c-0.136-9.541,1.477-18.868,4.794-27.72c0.437-1.166,1.737-1.754,2.901-1.32c1.165,0.438,1.756,1.736,1.319,2.9
						c-3.12,8.326-4.637,17.099-4.508,26.074c0.272,18.995,7.89,36.748,21.451,49.985c13.557,13.233,31.453,20.377,50.333,20.098
						c1.222,0.009,2.267,0.977,2.286,2.22c0.018,1.245-0.976,2.268-2.22,2.286C678.833,1404.713,678.461,1404.718,678.091,1404.718z
						"/>
					<g>
						<path d="M671.748,1380.175l-0.167-11.68c-8.205-0.25-16.19-2.348-20.88-4.986l3.465-14.438
							c5.18,2.753,12.438,5.231,20.392,5.116c6.975-0.101,11.71-2.875,11.639-7.793c-0.067-4.672-4.026-7.566-13.125-10.509
							c-13.158-4.237-22.179-10.255-22.35-22.181c-0.155-10.819,7.311-19.412,20.368-22.183l-0.167-11.68l11.992-0.173l0.155,10.819
							c8.205,0.25,13.737,1.892,17.803,3.801l-3.35,13.944c-3.201-1.306-8.871-4.053-17.682-3.925
							c-7.954,0.115-10.475,3.595-10.426,7.037c0.058,4.057,4.378,6.577,14.837,10.361c14.637,4.953,20.607,11.63,20.766,22.695
							c0.157,10.942-7.419,20.398-21.457,23.06l0.18,12.541L671.748,1380.175z"/>
					</g>
				</g>
			</g>
		</g>
	</g>
</g>
</svg>
