<?xml version="1.0" encoding="iso-8859-1"?>
<!-- Uploaded to: SVG Repo, www.svgrepo.com, Generator: SVG Repo Mixer Tools -->
<svg fill="#000000" height="800px" width="800px" version="1.1" id="Layer_1" xmlns="http://www.w3.org/2000/svg" xmlns:xlink="http://www.w3.org/1999/xlink" 
	 viewBox="0 0 512 512" xml:space="preserve">
<g>
	<g>
		<g>
			<path d="M273.994,39.574c-4.385,0-7.939,3.553-7.939,7.939v17.204h-20.111V47.513c0-4.385-3.554-7.939-7.939-7.939
				c-4.384,0-7.939,3.553-7.939,7.939v50.286c0,4.385,3.554,7.939,7.939,7.939c4.384,0,7.939-3.553,7.939-7.939V80.594h20.111
				v17.204c0,4.385,3.553,7.939,7.939,7.939s7.939-3.553,7.939-7.939V47.513C281.932,43.128,278.379,39.574,273.994,39.574z"/>
			<path d="M499.786,457.652h-39.422V164.366c8.541-1.645,15.018-9.165,15.018-18.18v-12.885c0-10.213-8.31-18.523-18.523-18.523
				h-13.342l-41.767-81.7c-5.293-10.352-18.547-18.461-30.173-18.461H140.423c-11.626,0-24.879,8.109-30.173,18.461l-41.765,81.702
				H55.142c-10.213,0-18.523,8.31-18.523,18.523v12.885c0,9.014,6.475,16.534,15.016,18.18v293.285H12.214
				C5.479,457.652,0,463.132,0,469.867v15.302c0,6.734,5.479,12.214,12.214,12.214h487.573c6.734,0,12.214-5.48,12.214-12.214
				v-15.302C512,463.132,506.52,457.652,499.786,457.652z M105.255,77.73H207.41V61.853h-94.039l11.016-21.547
				c2.625-5.136,10.268-9.812,16.036-9.812h231.154c5.767,0,13.411,4.676,16.036,9.812l11.015,21.547h-94.038V77.73h102.155
				l18.939,37.049H86.316L105.255,77.73z M52.496,133.302c0-1.434,1.212-2.646,2.646-2.646h401.715c1.434,0,2.646,1.212,2.646,2.646
				v12.885c0,1.434-1.212,2.646-2.646,2.646H55.142c-1.434,0-2.646-1.212-2.646-2.646V133.302z M312.623,347.806H199.376
				c-4.384,0-7.939,3.553-7.939,7.939v101.907H67.511V164.709h376.976v292.942H320.56V355.745
				C320.561,351.36,317.007,347.806,312.623,347.806z M304.684,363.683v93.968h-40.746v-93.968H304.684z M248.06,363.683v93.968
				h-40.746v-93.968H248.06z M157.793,481.506H15.877v-7.978h141.916V481.506z M338.332,481.506H173.67v-7.978h164.662V481.506z
				 M496.123,481.506H354.209v-7.978h141.914V481.506z"/>
			<path d="M349.166,293.408h68.649c4.385,0,7.939-3.553,7.939-7.939v-77.588c0-4.385-3.553-7.939-7.939-7.939h-68.649
				c-4.385,0-7.939,3.553-7.939,7.939v77.588C341.228,289.855,344.781,293.408,349.166,293.408z M357.105,215.82h52.772v22.917
				h-52.772V215.82z M357.105,254.615h52.772v22.916h-52.772V254.615z"/>
			<path d="M349.166,402.476h68.649c4.385,0,7.939-3.554,7.939-7.939V316.95c0-4.385-3.553-7.939-7.939-7.939h-68.649
				c-4.385,0-7.939,3.553-7.939,7.939v77.588C341.228,398.923,344.781,402.476,349.166,402.476z M357.105,324.888h52.772v22.917
				h-52.772V324.888z M357.105,363.683h52.772v22.916h-52.772V363.683z"/>
			<path d="M290.325,199.943h-68.651c-4.384,0-7.939,3.553-7.939,7.939v77.588c0,4.385,3.554,7.939,7.939,7.939h68.651
				c4.385,0,7.939-3.553,7.939-7.939v-77.588C298.263,203.497,294.71,199.943,290.325,199.943z M282.386,277.531h-52.773v-22.916
				h52.773V277.531z M282.386,238.738h-52.773v-22.917h52.773V238.738z"/>
			<path d="M162.834,309.011H94.183c-4.384,0-7.939,3.553-7.939,7.939v77.588c0,4.384,3.554,7.939,7.939,7.939h68.651
				c4.384,0,7.939-3.554,7.939-7.939V316.95C170.772,312.565,167.218,309.011,162.834,309.011z M154.895,386.599L154.895,386.599
				h-52.773v-22.916h52.773V386.599z M154.895,347.806L154.895,347.806h-52.773v-22.918h52.773V347.806z"/>
			<path d="M162.834,199.943H94.183c-4.384,0-7.939,3.553-7.939,7.939v77.588c0,4.385,3.554,7.939,7.939,7.939h68.651
				c4.384,0,7.939-3.553,7.939-7.939v-77.588C170.772,203.497,167.218,199.943,162.834,199.943z M154.895,277.531L154.895,277.531
				h-52.773v-22.916h52.773V277.531z M154.895,238.738L154.895,238.738h-52.773v-22.917h52.773V238.738z"/>
		</g>
	</g>
</g>
</svg>